<mxfile host="app.diagrams.net" modified="2022-11-25T17:29:45.101Z" agent="5.0 (Windows NT 10.0; Win64; x64) AppleWebKit/537.36 (KHTML, like Gecko) Chrome/107.0.0.0 Safari/537.36" version="20.6.0" etag="gBL7cX7VCdLckBGUJ87G" type="github">
  <diagram id="l1HofCXUDjyE7X9NJx-V" name="Page-1">
    <mxGraphModel dx="855" dy="1550" grid="1" gridSize="10" guides="1" tooltips="1" connect="1" arrows="1" fold="1" page="1" pageScale="1" pageWidth="850" pageHeight="1100" math="0" shadow="0">
      <root>
        <mxCell id="0" />
        <mxCell id="1" parent="0" />
        <mxCell id="hDO3oqwcBSIACxHkNT4T-130" value="" style="shape=table;startSize=0;container=1;collapsible=0;childLayout=tableLayout;fontSize=18;" vertex="1" parent="1">
          <mxGeometry x="210" y="-480" width="1280" height="1022" as="geometry" />
        </mxCell>
        <mxCell id="hDO3oqwcBSIACxHkNT4T-131" value="" style="shape=tableRow;horizontal=0;startSize=0;swimlaneHead=0;swimlaneBody=0;top=0;left=0;bottom=0;right=0;collapsible=0;dropTarget=0;fillColor=none;points=[[0,0.5],[1,0.5]];portConstraint=eastwest;fontSize=18;" vertex="1" parent="hDO3oqwcBSIACxHkNT4T-130">
          <mxGeometry width="1280" height="50" as="geometry" />
        </mxCell>
        <mxCell id="hDO3oqwcBSIACxHkNT4T-132" value="call" style="shape=partialRectangle;html=1;whiteSpace=wrap;connectable=0;overflow=hidden;fillColor=none;top=0;left=0;bottom=0;right=0;pointerEvents=1;fontSize=18;" vertex="1" parent="hDO3oqwcBSIACxHkNT4T-131">
          <mxGeometry width="109" height="50" as="geometry">
            <mxRectangle width="109" height="50" as="alternateBounds" />
          </mxGeometry>
        </mxCell>
        <mxCell id="hDO3oqwcBSIACxHkNT4T-133" value="Line" style="shape=partialRectangle;html=1;whiteSpace=wrap;connectable=0;overflow=hidden;fillColor=none;top=0;left=0;bottom=0;right=0;pointerEvents=1;fontSize=18;" vertex="1" parent="hDO3oqwcBSIACxHkNT4T-131">
          <mxGeometry x="109" width="107" height="50" as="geometry">
            <mxRectangle width="107" height="50" as="alternateBounds" />
          </mxGeometry>
        </mxCell>
        <mxCell id="hDO3oqwcBSIACxHkNT4T-134" value="stat. Typ" style="shape=partialRectangle;html=1;whiteSpace=wrap;connectable=0;overflow=hidden;fillColor=none;top=0;left=0;bottom=0;right=0;pointerEvents=1;fontSize=18;" vertex="1" parent="hDO3oqwcBSIACxHkNT4T-131">
          <mxGeometry x="216" width="109" height="50" as="geometry">
            <mxRectangle width="109" height="50" as="alternateBounds" />
          </mxGeometry>
        </mxCell>
        <mxCell id="hDO3oqwcBSIACxHkNT4T-135" value="compatible&lt;br&gt;methods" style="shape=partialRectangle;html=1;whiteSpace=wrap;connectable=0;overflow=hidden;fillColor=none;top=0;left=0;bottom=0;right=0;pointerEvents=1;fontSize=18;" vertex="1" parent="hDO3oqwcBSIACxHkNT4T-131">
          <mxGeometry x="325" width="107" height="50" as="geometry">
            <mxRectangle width="107" height="50" as="alternateBounds" />
          </mxGeometry>
        </mxCell>
        <mxCell id="hDO3oqwcBSIACxHkNT4T-136" value="Stat. sel.&lt;br&gt;method" style="shape=partialRectangle;html=1;whiteSpace=wrap;connectable=0;overflow=hidden;fillColor=none;top=0;left=0;bottom=0;right=0;pointerEvents=1;fontSize=18;" vertex="1" parent="hDO3oqwcBSIACxHkNT4T-131">
          <mxGeometry x="432" width="109" height="50" as="geometry">
            <mxRectangle width="109" height="50" as="alternateBounds" />
          </mxGeometry>
        </mxCell>
        <mxCell id="hDO3oqwcBSIACxHkNT4T-137" value="signature" style="shape=partialRectangle;html=1;whiteSpace=wrap;connectable=0;overflow=hidden;fillColor=none;top=0;left=0;bottom=0;right=0;pointerEvents=1;fontSize=18;" vertex="1" parent="hDO3oqwcBSIACxHkNT4T-131">
          <mxGeometry x="541" width="109" height="50" as="geometry">
            <mxRectangle width="109" height="50" as="alternateBounds" />
          </mxGeometry>
        </mxCell>
        <mxCell id="hDO3oqwcBSIACxHkNT4T-138" value="reason" style="shape=partialRectangle;html=1;whiteSpace=wrap;connectable=0;overflow=hidden;fillColor=none;top=0;left=0;bottom=0;right=0;pointerEvents=1;fontSize=18;" vertex="1" parent="hDO3oqwcBSIACxHkNT4T-131">
          <mxGeometry x="650" width="130" height="50" as="geometry">
            <mxRectangle width="130" height="50" as="alternateBounds" />
          </mxGeometry>
        </mxCell>
        <mxCell id="hDO3oqwcBSIACxHkNT4T-139" value="dyn.&lt;br&gt;Typ" style="shape=partialRectangle;html=1;whiteSpace=wrap;connectable=0;overflow=hidden;fillColor=none;top=0;left=0;bottom=0;right=0;pointerEvents=1;fontSize=18;" vertex="1" parent="hDO3oqwcBSIACxHkNT4T-131">
          <mxGeometry x="780" width="85" height="50" as="geometry">
            <mxRectangle width="85" height="50" as="alternateBounds" />
          </mxGeometry>
        </mxCell>
        <mxCell id="hDO3oqwcBSIACxHkNT4T-140" value="called at&lt;br&gt;runtime" style="shape=partialRectangle;html=1;whiteSpace=wrap;connectable=0;overflow=hidden;fillColor=none;top=0;left=0;bottom=0;right=0;pointerEvents=1;fontSize=18;" vertex="1" parent="hDO3oqwcBSIACxHkNT4T-131">
          <mxGeometry x="865" width="109" height="50" as="geometry">
            <mxRectangle width="109" height="50" as="alternateBounds" />
          </mxGeometry>
        </mxCell>
        <mxCell id="hDO3oqwcBSIACxHkNT4T-141" value="reason" style="shape=partialRectangle;html=1;whiteSpace=wrap;connectable=0;overflow=hidden;fillColor=none;top=0;left=0;bottom=0;right=0;pointerEvents=1;fontSize=18;" vertex="1" parent="hDO3oqwcBSIACxHkNT4T-131">
          <mxGeometry x="974" width="186" height="50" as="geometry">
            <mxRectangle width="186" height="50" as="alternateBounds" />
          </mxGeometry>
        </mxCell>
        <mxCell id="hDO3oqwcBSIACxHkNT4T-142" value="output" style="shape=partialRectangle;html=1;whiteSpace=wrap;connectable=0;overflow=hidden;fillColor=none;top=0;left=0;bottom=0;right=0;pointerEvents=1;fontSize=18;" vertex="1" parent="hDO3oqwcBSIACxHkNT4T-131">
          <mxGeometry x="1160" width="120" height="50" as="geometry">
            <mxRectangle width="120" height="50" as="alternateBounds" />
          </mxGeometry>
        </mxCell>
        <mxCell id="hDO3oqwcBSIACxHkNT4T-143" value="" style="shape=tableRow;horizontal=0;startSize=0;swimlaneHead=0;swimlaneBody=0;top=0;left=0;bottom=0;right=0;collapsible=0;dropTarget=0;fillColor=none;points=[[0,0.5],[1,0.5]];portConstraint=eastwest;fontSize=18;" vertex="1" parent="hDO3oqwcBSIACxHkNT4T-130">
          <mxGeometry y="50" width="1280" height="50" as="geometry" />
        </mxCell>
        <mxCell id="hDO3oqwcBSIACxHkNT4T-144" value="1" style="shape=partialRectangle;html=1;whiteSpace=wrap;connectable=0;overflow=hidden;fillColor=none;top=0;left=0;bottom=0;right=0;pointerEvents=1;fontSize=18;" vertex="1" parent="hDO3oqwcBSIACxHkNT4T-143">
          <mxGeometry width="109" height="50" as="geometry">
            <mxRectangle width="109" height="50" as="alternateBounds" />
          </mxGeometry>
        </mxCell>
        <mxCell id="hDO3oqwcBSIACxHkNT4T-145" value="74" style="shape=partialRectangle;html=1;whiteSpace=wrap;connectable=0;overflow=hidden;fillColor=none;top=0;left=0;bottom=0;right=0;pointerEvents=1;fontSize=18;" vertex="1" parent="hDO3oqwcBSIACxHkNT4T-143">
          <mxGeometry x="109" width="107" height="50" as="geometry">
            <mxRectangle width="107" height="50" as="alternateBounds" />
          </mxGeometry>
        </mxCell>
        <mxCell id="hDO3oqwcBSIACxHkNT4T-146" value="B" style="shape=partialRectangle;html=1;whiteSpace=wrap;connectable=0;overflow=hidden;fillColor=none;top=0;left=0;bottom=0;right=0;pointerEvents=1;fontSize=18;" vertex="1" parent="hDO3oqwcBSIACxHkNT4T-143">
          <mxGeometry x="216" width="109" height="50" as="geometry">
            <mxRectangle width="109" height="50" as="alternateBounds" />
          </mxGeometry>
        </mxCell>
        <mxCell id="hDO3oqwcBSIACxHkNT4T-147" value="" style="shape=partialRectangle;html=1;whiteSpace=wrap;connectable=0;overflow=hidden;fillColor=none;top=0;left=0;bottom=0;right=0;pointerEvents=1;fontSize=18;" vertex="1" parent="hDO3oqwcBSIACxHkNT4T-143">
          <mxGeometry x="325" width="107" height="50" as="geometry">
            <mxRectangle width="107" height="50" as="alternateBounds" />
          </mxGeometry>
        </mxCell>
        <mxCell id="hDO3oqwcBSIACxHkNT4T-148" value="" style="shape=partialRectangle;html=1;whiteSpace=wrap;connectable=0;overflow=hidden;fillColor=none;top=0;left=0;bottom=0;right=0;pointerEvents=1;fontSize=18;" vertex="1" parent="hDO3oqwcBSIACxHkNT4T-143">
          <mxGeometry x="432" width="109" height="50" as="geometry">
            <mxRectangle width="109" height="50" as="alternateBounds" />
          </mxGeometry>
        </mxCell>
        <mxCell id="hDO3oqwcBSIACxHkNT4T-149" value="" style="shape=partialRectangle;html=1;whiteSpace=wrap;connectable=0;overflow=hidden;fillColor=none;top=0;left=0;bottom=0;right=0;pointerEvents=1;fontSize=18;" vertex="1" parent="hDO3oqwcBSIACxHkNT4T-143">
          <mxGeometry x="541" width="109" height="50" as="geometry">
            <mxRectangle width="109" height="50" as="alternateBounds" />
          </mxGeometry>
        </mxCell>
        <mxCell id="hDO3oqwcBSIACxHkNT4T-150" value="" style="shape=partialRectangle;html=1;whiteSpace=wrap;connectable=0;overflow=hidden;fillColor=none;top=0;left=0;bottom=0;right=0;pointerEvents=1;fontSize=18;" vertex="1" parent="hDO3oqwcBSIACxHkNT4T-143">
          <mxGeometry x="650" width="130" height="50" as="geometry">
            <mxRectangle width="130" height="50" as="alternateBounds" />
          </mxGeometry>
        </mxCell>
        <mxCell id="hDO3oqwcBSIACxHkNT4T-151" value="" style="shape=partialRectangle;html=1;whiteSpace=wrap;connectable=0;overflow=hidden;fillColor=none;top=0;left=0;bottom=0;right=0;pointerEvents=1;fontSize=18;" vertex="1" parent="hDO3oqwcBSIACxHkNT4T-143">
          <mxGeometry x="780" width="85" height="50" as="geometry">
            <mxRectangle width="85" height="50" as="alternateBounds" />
          </mxGeometry>
        </mxCell>
        <mxCell id="hDO3oqwcBSIACxHkNT4T-152" value="" style="shape=partialRectangle;html=1;whiteSpace=wrap;connectable=0;overflow=hidden;fillColor=none;top=0;left=0;bottom=0;right=0;pointerEvents=1;fontSize=18;" vertex="1" parent="hDO3oqwcBSIACxHkNT4T-143">
          <mxGeometry x="865" width="109" height="50" as="geometry">
            <mxRectangle width="109" height="50" as="alternateBounds" />
          </mxGeometry>
        </mxCell>
        <mxCell id="hDO3oqwcBSIACxHkNT4T-153" value="" style="shape=partialRectangle;html=1;whiteSpace=wrap;connectable=0;overflow=hidden;fillColor=none;top=0;left=0;bottom=0;right=0;pointerEvents=1;fontSize=18;" vertex="1" parent="hDO3oqwcBSIACxHkNT4T-143">
          <mxGeometry x="974" width="186" height="50" as="geometry">
            <mxRectangle width="186" height="50" as="alternateBounds" />
          </mxGeometry>
        </mxCell>
        <mxCell id="hDO3oqwcBSIACxHkNT4T-154" value="" style="shape=partialRectangle;html=1;whiteSpace=wrap;connectable=0;overflow=hidden;fillColor=none;top=0;left=0;bottom=0;right=0;pointerEvents=1;fontSize=18;" vertex="1" parent="hDO3oqwcBSIACxHkNT4T-143">
          <mxGeometry x="1160" width="120" height="50" as="geometry">
            <mxRectangle width="120" height="50" as="alternateBounds" />
          </mxGeometry>
        </mxCell>
        <mxCell id="hDO3oqwcBSIACxHkNT4T-155" value="" style="shape=tableRow;horizontal=0;startSize=0;swimlaneHead=0;swimlaneBody=0;top=0;left=0;bottom=0;right=0;collapsible=0;dropTarget=0;fillColor=none;points=[[0,0.5],[1,0.5]];portConstraint=eastwest;fontSize=18;" vertex="1" parent="hDO3oqwcBSIACxHkNT4T-130">
          <mxGeometry y="100" width="1280" height="48" as="geometry" />
        </mxCell>
        <mxCell id="hDO3oqwcBSIACxHkNT4T-156" value="" style="shape=partialRectangle;html=1;whiteSpace=wrap;connectable=0;overflow=hidden;fillColor=none;top=0;left=0;bottom=0;right=0;pointerEvents=1;fontSize=18;" vertex="1" parent="hDO3oqwcBSIACxHkNT4T-155">
          <mxGeometry width="109" height="48" as="geometry">
            <mxRectangle width="109" height="48" as="alternateBounds" />
          </mxGeometry>
        </mxCell>
        <mxCell id="hDO3oqwcBSIACxHkNT4T-157" value="" style="shape=partialRectangle;html=1;whiteSpace=wrap;connectable=0;overflow=hidden;fillColor=none;top=0;left=0;bottom=0;right=0;pointerEvents=1;fontSize=18;" vertex="1" parent="hDO3oqwcBSIACxHkNT4T-155">
          <mxGeometry x="109" width="107" height="48" as="geometry">
            <mxRectangle width="107" height="48" as="alternateBounds" />
          </mxGeometry>
        </mxCell>
        <mxCell id="hDO3oqwcBSIACxHkNT4T-158" value="" style="shape=partialRectangle;html=1;whiteSpace=wrap;connectable=0;overflow=hidden;fillColor=none;top=0;left=0;bottom=0;right=0;pointerEvents=1;fontSize=18;" vertex="1" parent="hDO3oqwcBSIACxHkNT4T-155">
          <mxGeometry x="216" width="109" height="48" as="geometry">
            <mxRectangle width="109" height="48" as="alternateBounds" />
          </mxGeometry>
        </mxCell>
        <mxCell id="hDO3oqwcBSIACxHkNT4T-159" value="" style="shape=partialRectangle;html=1;whiteSpace=wrap;connectable=0;overflow=hidden;fillColor=none;top=0;left=0;bottom=0;right=0;pointerEvents=1;fontSize=18;" vertex="1" parent="hDO3oqwcBSIACxHkNT4T-155">
          <mxGeometry x="325" width="107" height="48" as="geometry">
            <mxRectangle width="107" height="48" as="alternateBounds" />
          </mxGeometry>
        </mxCell>
        <mxCell id="hDO3oqwcBSIACxHkNT4T-160" value="" style="shape=partialRectangle;html=1;whiteSpace=wrap;connectable=0;overflow=hidden;fillColor=none;top=0;left=0;bottom=0;right=0;pointerEvents=1;fontSize=18;" vertex="1" parent="hDO3oqwcBSIACxHkNT4T-155">
          <mxGeometry x="432" width="109" height="48" as="geometry">
            <mxRectangle width="109" height="48" as="alternateBounds" />
          </mxGeometry>
        </mxCell>
        <mxCell id="hDO3oqwcBSIACxHkNT4T-161" value="" style="shape=partialRectangle;html=1;whiteSpace=wrap;connectable=0;overflow=hidden;fillColor=none;top=0;left=0;bottom=0;right=0;pointerEvents=1;fontSize=18;" vertex="1" parent="hDO3oqwcBSIACxHkNT4T-155">
          <mxGeometry x="541" width="109" height="48" as="geometry">
            <mxRectangle width="109" height="48" as="alternateBounds" />
          </mxGeometry>
        </mxCell>
        <mxCell id="hDO3oqwcBSIACxHkNT4T-162" value="" style="shape=partialRectangle;html=1;whiteSpace=wrap;connectable=0;overflow=hidden;fillColor=none;top=0;left=0;bottom=0;right=0;pointerEvents=1;fontSize=18;" vertex="1" parent="hDO3oqwcBSIACxHkNT4T-155">
          <mxGeometry x="650" width="130" height="48" as="geometry">
            <mxRectangle width="130" height="48" as="alternateBounds" />
          </mxGeometry>
        </mxCell>
        <mxCell id="hDO3oqwcBSIACxHkNT4T-163" value="" style="shape=partialRectangle;html=1;whiteSpace=wrap;connectable=0;overflow=hidden;fillColor=none;top=0;left=0;bottom=0;right=0;pointerEvents=1;fontSize=18;" vertex="1" parent="hDO3oqwcBSIACxHkNT4T-155">
          <mxGeometry x="780" width="85" height="48" as="geometry">
            <mxRectangle width="85" height="48" as="alternateBounds" />
          </mxGeometry>
        </mxCell>
        <mxCell id="hDO3oqwcBSIACxHkNT4T-164" value="" style="shape=partialRectangle;html=1;whiteSpace=wrap;connectable=0;overflow=hidden;fillColor=none;top=0;left=0;bottom=0;right=0;pointerEvents=1;fontSize=18;" vertex="1" parent="hDO3oqwcBSIACxHkNT4T-155">
          <mxGeometry x="865" width="109" height="48" as="geometry">
            <mxRectangle width="109" height="48" as="alternateBounds" />
          </mxGeometry>
        </mxCell>
        <mxCell id="hDO3oqwcBSIACxHkNT4T-165" value="" style="shape=partialRectangle;html=1;whiteSpace=wrap;connectable=0;overflow=hidden;fillColor=none;top=0;left=0;bottom=0;right=0;pointerEvents=1;fontSize=18;" vertex="1" parent="hDO3oqwcBSIACxHkNT4T-155">
          <mxGeometry x="974" width="186" height="48" as="geometry">
            <mxRectangle width="186" height="48" as="alternateBounds" />
          </mxGeometry>
        </mxCell>
        <mxCell id="hDO3oqwcBSIACxHkNT4T-166" value="" style="shape=partialRectangle;html=1;whiteSpace=wrap;connectable=0;overflow=hidden;fillColor=none;top=0;left=0;bottom=0;right=0;pointerEvents=1;fontSize=18;" vertex="1" parent="hDO3oqwcBSIACxHkNT4T-155">
          <mxGeometry x="1160" width="120" height="48" as="geometry">
            <mxRectangle width="120" height="48" as="alternateBounds" />
          </mxGeometry>
        </mxCell>
        <mxCell id="hDO3oqwcBSIACxHkNT4T-167" value="" style="shape=tableRow;horizontal=0;startSize=0;swimlaneHead=0;swimlaneBody=0;top=0;left=0;bottom=0;right=0;collapsible=0;dropTarget=0;fillColor=none;points=[[0,0.5],[1,0.5]];portConstraint=eastwest;fontSize=18;" vertex="1" parent="hDO3oqwcBSIACxHkNT4T-130">
          <mxGeometry y="148" width="1280" height="50" as="geometry" />
        </mxCell>
        <mxCell id="hDO3oqwcBSIACxHkNT4T-168" value="" style="shape=partialRectangle;html=1;whiteSpace=wrap;connectable=0;overflow=hidden;fillColor=none;top=0;left=0;bottom=0;right=0;pointerEvents=1;fontSize=18;" vertex="1" parent="hDO3oqwcBSIACxHkNT4T-167">
          <mxGeometry width="109" height="50" as="geometry">
            <mxRectangle width="109" height="50" as="alternateBounds" />
          </mxGeometry>
        </mxCell>
        <mxCell id="hDO3oqwcBSIACxHkNT4T-169" value="" style="shape=partialRectangle;html=1;whiteSpace=wrap;connectable=0;overflow=hidden;fillColor=none;top=0;left=0;bottom=0;right=0;pointerEvents=1;fontSize=18;" vertex="1" parent="hDO3oqwcBSIACxHkNT4T-167">
          <mxGeometry x="109" width="107" height="50" as="geometry">
            <mxRectangle width="107" height="50" as="alternateBounds" />
          </mxGeometry>
        </mxCell>
        <mxCell id="hDO3oqwcBSIACxHkNT4T-170" value="" style="shape=partialRectangle;html=1;whiteSpace=wrap;connectable=0;overflow=hidden;fillColor=none;top=0;left=0;bottom=0;right=0;pointerEvents=1;fontSize=18;" vertex="1" parent="hDO3oqwcBSIACxHkNT4T-167">
          <mxGeometry x="216" width="109" height="50" as="geometry">
            <mxRectangle width="109" height="50" as="alternateBounds" />
          </mxGeometry>
        </mxCell>
        <mxCell id="hDO3oqwcBSIACxHkNT4T-171" value="" style="shape=partialRectangle;html=1;whiteSpace=wrap;connectable=0;overflow=hidden;fillColor=none;top=0;left=0;bottom=0;right=0;pointerEvents=1;fontSize=18;" vertex="1" parent="hDO3oqwcBSIACxHkNT4T-167">
          <mxGeometry x="325" width="107" height="50" as="geometry">
            <mxRectangle width="107" height="50" as="alternateBounds" />
          </mxGeometry>
        </mxCell>
        <mxCell id="hDO3oqwcBSIACxHkNT4T-172" value="" style="shape=partialRectangle;html=1;whiteSpace=wrap;connectable=0;overflow=hidden;fillColor=none;top=0;left=0;bottom=0;right=0;pointerEvents=1;fontSize=18;" vertex="1" parent="hDO3oqwcBSIACxHkNT4T-167">
          <mxGeometry x="432" width="109" height="50" as="geometry">
            <mxRectangle width="109" height="50" as="alternateBounds" />
          </mxGeometry>
        </mxCell>
        <mxCell id="hDO3oqwcBSIACxHkNT4T-173" value="" style="shape=partialRectangle;html=1;whiteSpace=wrap;connectable=0;overflow=hidden;fillColor=none;top=0;left=0;bottom=0;right=0;pointerEvents=1;fontSize=18;" vertex="1" parent="hDO3oqwcBSIACxHkNT4T-167">
          <mxGeometry x="541" width="109" height="50" as="geometry">
            <mxRectangle width="109" height="50" as="alternateBounds" />
          </mxGeometry>
        </mxCell>
        <mxCell id="hDO3oqwcBSIACxHkNT4T-174" value="" style="shape=partialRectangle;html=1;whiteSpace=wrap;connectable=0;overflow=hidden;fillColor=none;top=0;left=0;bottom=0;right=0;pointerEvents=1;fontSize=18;" vertex="1" parent="hDO3oqwcBSIACxHkNT4T-167">
          <mxGeometry x="650" width="130" height="50" as="geometry">
            <mxRectangle width="130" height="50" as="alternateBounds" />
          </mxGeometry>
        </mxCell>
        <mxCell id="hDO3oqwcBSIACxHkNT4T-175" value="" style="shape=partialRectangle;html=1;whiteSpace=wrap;connectable=0;overflow=hidden;fillColor=none;top=0;left=0;bottom=0;right=0;pointerEvents=1;fontSize=18;" vertex="1" parent="hDO3oqwcBSIACxHkNT4T-167">
          <mxGeometry x="780" width="85" height="50" as="geometry">
            <mxRectangle width="85" height="50" as="alternateBounds" />
          </mxGeometry>
        </mxCell>
        <mxCell id="hDO3oqwcBSIACxHkNT4T-176" value="" style="shape=partialRectangle;html=1;whiteSpace=wrap;connectable=0;overflow=hidden;fillColor=none;top=0;left=0;bottom=0;right=0;pointerEvents=1;fontSize=18;" vertex="1" parent="hDO3oqwcBSIACxHkNT4T-167">
          <mxGeometry x="865" width="109" height="50" as="geometry">
            <mxRectangle width="109" height="50" as="alternateBounds" />
          </mxGeometry>
        </mxCell>
        <mxCell id="hDO3oqwcBSIACxHkNT4T-177" value="" style="shape=partialRectangle;html=1;whiteSpace=wrap;connectable=0;overflow=hidden;fillColor=none;top=0;left=0;bottom=0;right=0;pointerEvents=1;fontSize=18;" vertex="1" parent="hDO3oqwcBSIACxHkNT4T-167">
          <mxGeometry x="974" width="186" height="50" as="geometry">
            <mxRectangle width="186" height="50" as="alternateBounds" />
          </mxGeometry>
        </mxCell>
        <mxCell id="hDO3oqwcBSIACxHkNT4T-178" value="" style="shape=partialRectangle;html=1;whiteSpace=wrap;connectable=0;overflow=hidden;fillColor=none;top=0;left=0;bottom=0;right=0;pointerEvents=1;fontSize=18;" vertex="1" parent="hDO3oqwcBSIACxHkNT4T-167">
          <mxGeometry x="1160" width="120" height="50" as="geometry">
            <mxRectangle width="120" height="50" as="alternateBounds" />
          </mxGeometry>
        </mxCell>
        <mxCell id="hDO3oqwcBSIACxHkNT4T-179" value="" style="shape=tableRow;horizontal=0;startSize=0;swimlaneHead=0;swimlaneBody=0;top=0;left=0;bottom=0;right=0;collapsible=0;dropTarget=0;fillColor=none;points=[[0,0.5],[1,0.5]];portConstraint=eastwest;fontSize=18;" vertex="1" parent="hDO3oqwcBSIACxHkNT4T-130">
          <mxGeometry y="198" width="1280" height="47" as="geometry" />
        </mxCell>
        <mxCell id="hDO3oqwcBSIACxHkNT4T-180" value="" style="shape=partialRectangle;html=1;whiteSpace=wrap;connectable=0;overflow=hidden;fillColor=none;top=0;left=0;bottom=0;right=0;pointerEvents=1;fontSize=18;" vertex="1" parent="hDO3oqwcBSIACxHkNT4T-179">
          <mxGeometry width="109" height="47" as="geometry">
            <mxRectangle width="109" height="47" as="alternateBounds" />
          </mxGeometry>
        </mxCell>
        <mxCell id="hDO3oqwcBSIACxHkNT4T-181" value="" style="shape=partialRectangle;html=1;whiteSpace=wrap;connectable=0;overflow=hidden;fillColor=none;top=0;left=0;bottom=0;right=0;pointerEvents=1;fontSize=18;" vertex="1" parent="hDO3oqwcBSIACxHkNT4T-179">
          <mxGeometry x="109" width="107" height="47" as="geometry">
            <mxRectangle width="107" height="47" as="alternateBounds" />
          </mxGeometry>
        </mxCell>
        <mxCell id="hDO3oqwcBSIACxHkNT4T-182" value="" style="shape=partialRectangle;html=1;whiteSpace=wrap;connectable=0;overflow=hidden;fillColor=none;top=0;left=0;bottom=0;right=0;pointerEvents=1;fontSize=18;" vertex="1" parent="hDO3oqwcBSIACxHkNT4T-179">
          <mxGeometry x="216" width="109" height="47" as="geometry">
            <mxRectangle width="109" height="47" as="alternateBounds" />
          </mxGeometry>
        </mxCell>
        <mxCell id="hDO3oqwcBSIACxHkNT4T-183" value="" style="shape=partialRectangle;html=1;whiteSpace=wrap;connectable=0;overflow=hidden;fillColor=none;top=0;left=0;bottom=0;right=0;pointerEvents=1;fontSize=18;" vertex="1" parent="hDO3oqwcBSIACxHkNT4T-179">
          <mxGeometry x="325" width="107" height="47" as="geometry">
            <mxRectangle width="107" height="47" as="alternateBounds" />
          </mxGeometry>
        </mxCell>
        <mxCell id="hDO3oqwcBSIACxHkNT4T-184" value="" style="shape=partialRectangle;html=1;whiteSpace=wrap;connectable=0;overflow=hidden;fillColor=none;top=0;left=0;bottom=0;right=0;pointerEvents=1;fontSize=18;" vertex="1" parent="hDO3oqwcBSIACxHkNT4T-179">
          <mxGeometry x="432" width="109" height="47" as="geometry">
            <mxRectangle width="109" height="47" as="alternateBounds" />
          </mxGeometry>
        </mxCell>
        <mxCell id="hDO3oqwcBSIACxHkNT4T-185" value="" style="shape=partialRectangle;html=1;whiteSpace=wrap;connectable=0;overflow=hidden;fillColor=none;top=0;left=0;bottom=0;right=0;pointerEvents=1;fontSize=18;" vertex="1" parent="hDO3oqwcBSIACxHkNT4T-179">
          <mxGeometry x="541" width="109" height="47" as="geometry">
            <mxRectangle width="109" height="47" as="alternateBounds" />
          </mxGeometry>
        </mxCell>
        <mxCell id="hDO3oqwcBSIACxHkNT4T-186" value="" style="shape=partialRectangle;html=1;whiteSpace=wrap;connectable=0;overflow=hidden;fillColor=none;top=0;left=0;bottom=0;right=0;pointerEvents=1;fontSize=18;" vertex="1" parent="hDO3oqwcBSIACxHkNT4T-179">
          <mxGeometry x="650" width="130" height="47" as="geometry">
            <mxRectangle width="130" height="47" as="alternateBounds" />
          </mxGeometry>
        </mxCell>
        <mxCell id="hDO3oqwcBSIACxHkNT4T-187" value="" style="shape=partialRectangle;html=1;whiteSpace=wrap;connectable=0;overflow=hidden;fillColor=none;top=0;left=0;bottom=0;right=0;pointerEvents=1;fontSize=18;" vertex="1" parent="hDO3oqwcBSIACxHkNT4T-179">
          <mxGeometry x="780" width="85" height="47" as="geometry">
            <mxRectangle width="85" height="47" as="alternateBounds" />
          </mxGeometry>
        </mxCell>
        <mxCell id="hDO3oqwcBSIACxHkNT4T-188" value="" style="shape=partialRectangle;html=1;whiteSpace=wrap;connectable=0;overflow=hidden;fillColor=none;top=0;left=0;bottom=0;right=0;pointerEvents=1;fontSize=18;" vertex="1" parent="hDO3oqwcBSIACxHkNT4T-179">
          <mxGeometry x="865" width="109" height="47" as="geometry">
            <mxRectangle width="109" height="47" as="alternateBounds" />
          </mxGeometry>
        </mxCell>
        <mxCell id="hDO3oqwcBSIACxHkNT4T-189" value="" style="shape=partialRectangle;html=1;whiteSpace=wrap;connectable=0;overflow=hidden;fillColor=none;top=0;left=0;bottom=0;right=0;pointerEvents=1;fontSize=18;" vertex="1" parent="hDO3oqwcBSIACxHkNT4T-179">
          <mxGeometry x="974" width="186" height="47" as="geometry">
            <mxRectangle width="186" height="47" as="alternateBounds" />
          </mxGeometry>
        </mxCell>
        <mxCell id="hDO3oqwcBSIACxHkNT4T-190" value="" style="shape=partialRectangle;html=1;whiteSpace=wrap;connectable=0;overflow=hidden;fillColor=none;top=0;left=0;bottom=0;right=0;pointerEvents=1;fontSize=18;" vertex="1" parent="hDO3oqwcBSIACxHkNT4T-179">
          <mxGeometry x="1160" width="120" height="47" as="geometry">
            <mxRectangle width="120" height="47" as="alternateBounds" />
          </mxGeometry>
        </mxCell>
        <mxCell id="hDO3oqwcBSIACxHkNT4T-191" value="" style="shape=tableRow;horizontal=0;startSize=0;swimlaneHead=0;swimlaneBody=0;top=0;left=0;bottom=0;right=0;collapsible=0;dropTarget=0;fillColor=none;points=[[0,0.5],[1,0.5]];portConstraint=eastwest;fontSize=18;" vertex="1" parent="hDO3oqwcBSIACxHkNT4T-130">
          <mxGeometry y="245" width="1280" height="49" as="geometry" />
        </mxCell>
        <mxCell id="hDO3oqwcBSIACxHkNT4T-192" value="" style="shape=partialRectangle;html=1;whiteSpace=wrap;connectable=0;overflow=hidden;fillColor=none;top=0;left=0;bottom=0;right=0;pointerEvents=1;fontSize=18;" vertex="1" parent="hDO3oqwcBSIACxHkNT4T-191">
          <mxGeometry width="109" height="49" as="geometry">
            <mxRectangle width="109" height="49" as="alternateBounds" />
          </mxGeometry>
        </mxCell>
        <mxCell id="hDO3oqwcBSIACxHkNT4T-193" value="" style="shape=partialRectangle;html=1;whiteSpace=wrap;connectable=0;overflow=hidden;fillColor=none;top=0;left=0;bottom=0;right=0;pointerEvents=1;fontSize=18;" vertex="1" parent="hDO3oqwcBSIACxHkNT4T-191">
          <mxGeometry x="109" width="107" height="49" as="geometry">
            <mxRectangle width="107" height="49" as="alternateBounds" />
          </mxGeometry>
        </mxCell>
        <mxCell id="hDO3oqwcBSIACxHkNT4T-194" value="" style="shape=partialRectangle;html=1;whiteSpace=wrap;connectable=0;overflow=hidden;fillColor=none;top=0;left=0;bottom=0;right=0;pointerEvents=1;fontSize=18;" vertex="1" parent="hDO3oqwcBSIACxHkNT4T-191">
          <mxGeometry x="216" width="109" height="49" as="geometry">
            <mxRectangle width="109" height="49" as="alternateBounds" />
          </mxGeometry>
        </mxCell>
        <mxCell id="hDO3oqwcBSIACxHkNT4T-195" value="" style="shape=partialRectangle;html=1;whiteSpace=wrap;connectable=0;overflow=hidden;fillColor=none;top=0;left=0;bottom=0;right=0;pointerEvents=1;fontSize=18;" vertex="1" parent="hDO3oqwcBSIACxHkNT4T-191">
          <mxGeometry x="325" width="107" height="49" as="geometry">
            <mxRectangle width="107" height="49" as="alternateBounds" />
          </mxGeometry>
        </mxCell>
        <mxCell id="hDO3oqwcBSIACxHkNT4T-196" value="" style="shape=partialRectangle;html=1;whiteSpace=wrap;connectable=0;overflow=hidden;fillColor=none;top=0;left=0;bottom=0;right=0;pointerEvents=1;fontSize=18;" vertex="1" parent="hDO3oqwcBSIACxHkNT4T-191">
          <mxGeometry x="432" width="109" height="49" as="geometry">
            <mxRectangle width="109" height="49" as="alternateBounds" />
          </mxGeometry>
        </mxCell>
        <mxCell id="hDO3oqwcBSIACxHkNT4T-197" value="" style="shape=partialRectangle;html=1;whiteSpace=wrap;connectable=0;overflow=hidden;fillColor=none;top=0;left=0;bottom=0;right=0;pointerEvents=1;fontSize=18;" vertex="1" parent="hDO3oqwcBSIACxHkNT4T-191">
          <mxGeometry x="541" width="109" height="49" as="geometry">
            <mxRectangle width="109" height="49" as="alternateBounds" />
          </mxGeometry>
        </mxCell>
        <mxCell id="hDO3oqwcBSIACxHkNT4T-198" value="" style="shape=partialRectangle;html=1;whiteSpace=wrap;connectable=0;overflow=hidden;fillColor=none;top=0;left=0;bottom=0;right=0;pointerEvents=1;fontSize=18;" vertex="1" parent="hDO3oqwcBSIACxHkNT4T-191">
          <mxGeometry x="650" width="130" height="49" as="geometry">
            <mxRectangle width="130" height="49" as="alternateBounds" />
          </mxGeometry>
        </mxCell>
        <mxCell id="hDO3oqwcBSIACxHkNT4T-199" value="" style="shape=partialRectangle;html=1;whiteSpace=wrap;connectable=0;overflow=hidden;fillColor=none;top=0;left=0;bottom=0;right=0;pointerEvents=1;fontSize=18;" vertex="1" parent="hDO3oqwcBSIACxHkNT4T-191">
          <mxGeometry x="780" width="85" height="49" as="geometry">
            <mxRectangle width="85" height="49" as="alternateBounds" />
          </mxGeometry>
        </mxCell>
        <mxCell id="hDO3oqwcBSIACxHkNT4T-200" value="" style="shape=partialRectangle;html=1;whiteSpace=wrap;connectable=0;overflow=hidden;fillColor=none;top=0;left=0;bottom=0;right=0;pointerEvents=1;fontSize=18;" vertex="1" parent="hDO3oqwcBSIACxHkNT4T-191">
          <mxGeometry x="865" width="109" height="49" as="geometry">
            <mxRectangle width="109" height="49" as="alternateBounds" />
          </mxGeometry>
        </mxCell>
        <mxCell id="hDO3oqwcBSIACxHkNT4T-201" value="" style="shape=partialRectangle;html=1;whiteSpace=wrap;connectable=0;overflow=hidden;fillColor=none;top=0;left=0;bottom=0;right=0;pointerEvents=1;fontSize=18;" vertex="1" parent="hDO3oqwcBSIACxHkNT4T-191">
          <mxGeometry x="974" width="186" height="49" as="geometry">
            <mxRectangle width="186" height="49" as="alternateBounds" />
          </mxGeometry>
        </mxCell>
        <mxCell id="hDO3oqwcBSIACxHkNT4T-202" value="" style="shape=partialRectangle;html=1;whiteSpace=wrap;connectable=0;overflow=hidden;fillColor=none;top=0;left=0;bottom=0;right=0;pointerEvents=1;fontSize=18;" vertex="1" parent="hDO3oqwcBSIACxHkNT4T-191">
          <mxGeometry x="1160" width="120" height="49" as="geometry">
            <mxRectangle width="120" height="49" as="alternateBounds" />
          </mxGeometry>
        </mxCell>
        <mxCell id="hDO3oqwcBSIACxHkNT4T-203" value="" style="shape=tableRow;horizontal=0;startSize=0;swimlaneHead=0;swimlaneBody=0;top=0;left=0;bottom=0;right=0;collapsible=0;dropTarget=0;fillColor=none;points=[[0,0.5],[1,0.5]];portConstraint=eastwest;fontSize=18;" vertex="1" parent="hDO3oqwcBSIACxHkNT4T-130">
          <mxGeometry y="294" width="1280" height="49" as="geometry" />
        </mxCell>
        <mxCell id="hDO3oqwcBSIACxHkNT4T-204" value="" style="shape=partialRectangle;html=1;whiteSpace=wrap;connectable=0;overflow=hidden;fillColor=none;top=0;left=0;bottom=0;right=0;pointerEvents=1;fontSize=18;" vertex="1" parent="hDO3oqwcBSIACxHkNT4T-203">
          <mxGeometry width="109" height="49" as="geometry">
            <mxRectangle width="109" height="49" as="alternateBounds" />
          </mxGeometry>
        </mxCell>
        <mxCell id="hDO3oqwcBSIACxHkNT4T-205" value="" style="shape=partialRectangle;html=1;whiteSpace=wrap;connectable=0;overflow=hidden;fillColor=none;top=0;left=0;bottom=0;right=0;pointerEvents=1;fontSize=18;" vertex="1" parent="hDO3oqwcBSIACxHkNT4T-203">
          <mxGeometry x="109" width="107" height="49" as="geometry">
            <mxRectangle width="107" height="49" as="alternateBounds" />
          </mxGeometry>
        </mxCell>
        <mxCell id="hDO3oqwcBSIACxHkNT4T-206" value="" style="shape=partialRectangle;html=1;whiteSpace=wrap;connectable=0;overflow=hidden;fillColor=none;top=0;left=0;bottom=0;right=0;pointerEvents=1;fontSize=18;" vertex="1" parent="hDO3oqwcBSIACxHkNT4T-203">
          <mxGeometry x="216" width="109" height="49" as="geometry">
            <mxRectangle width="109" height="49" as="alternateBounds" />
          </mxGeometry>
        </mxCell>
        <mxCell id="hDO3oqwcBSIACxHkNT4T-207" value="" style="shape=partialRectangle;html=1;whiteSpace=wrap;connectable=0;overflow=hidden;fillColor=none;top=0;left=0;bottom=0;right=0;pointerEvents=1;fontSize=18;" vertex="1" parent="hDO3oqwcBSIACxHkNT4T-203">
          <mxGeometry x="325" width="107" height="49" as="geometry">
            <mxRectangle width="107" height="49" as="alternateBounds" />
          </mxGeometry>
        </mxCell>
        <mxCell id="hDO3oqwcBSIACxHkNT4T-208" value="" style="shape=partialRectangle;html=1;whiteSpace=wrap;connectable=0;overflow=hidden;fillColor=none;top=0;left=0;bottom=0;right=0;pointerEvents=1;fontSize=18;" vertex="1" parent="hDO3oqwcBSIACxHkNT4T-203">
          <mxGeometry x="432" width="109" height="49" as="geometry">
            <mxRectangle width="109" height="49" as="alternateBounds" />
          </mxGeometry>
        </mxCell>
        <mxCell id="hDO3oqwcBSIACxHkNT4T-209" value="" style="shape=partialRectangle;html=1;whiteSpace=wrap;connectable=0;overflow=hidden;fillColor=none;top=0;left=0;bottom=0;right=0;pointerEvents=1;fontSize=18;" vertex="1" parent="hDO3oqwcBSIACxHkNT4T-203">
          <mxGeometry x="541" width="109" height="49" as="geometry">
            <mxRectangle width="109" height="49" as="alternateBounds" />
          </mxGeometry>
        </mxCell>
        <mxCell id="hDO3oqwcBSIACxHkNT4T-210" value="" style="shape=partialRectangle;html=1;whiteSpace=wrap;connectable=0;overflow=hidden;fillColor=none;top=0;left=0;bottom=0;right=0;pointerEvents=1;fontSize=18;" vertex="1" parent="hDO3oqwcBSIACxHkNT4T-203">
          <mxGeometry x="650" width="130" height="49" as="geometry">
            <mxRectangle width="130" height="49" as="alternateBounds" />
          </mxGeometry>
        </mxCell>
        <mxCell id="hDO3oqwcBSIACxHkNT4T-211" value="" style="shape=partialRectangle;html=1;whiteSpace=wrap;connectable=0;overflow=hidden;fillColor=none;top=0;left=0;bottom=0;right=0;pointerEvents=1;fontSize=18;" vertex="1" parent="hDO3oqwcBSIACxHkNT4T-203">
          <mxGeometry x="780" width="85" height="49" as="geometry">
            <mxRectangle width="85" height="49" as="alternateBounds" />
          </mxGeometry>
        </mxCell>
        <mxCell id="hDO3oqwcBSIACxHkNT4T-212" value="" style="shape=partialRectangle;html=1;whiteSpace=wrap;connectable=0;overflow=hidden;fillColor=none;top=0;left=0;bottom=0;right=0;pointerEvents=1;fontSize=18;" vertex="1" parent="hDO3oqwcBSIACxHkNT4T-203">
          <mxGeometry x="865" width="109" height="49" as="geometry">
            <mxRectangle width="109" height="49" as="alternateBounds" />
          </mxGeometry>
        </mxCell>
        <mxCell id="hDO3oqwcBSIACxHkNT4T-213" value="" style="shape=partialRectangle;html=1;whiteSpace=wrap;connectable=0;overflow=hidden;fillColor=none;top=0;left=0;bottom=0;right=0;pointerEvents=1;fontSize=18;" vertex="1" parent="hDO3oqwcBSIACxHkNT4T-203">
          <mxGeometry x="974" width="186" height="49" as="geometry">
            <mxRectangle width="186" height="49" as="alternateBounds" />
          </mxGeometry>
        </mxCell>
        <mxCell id="hDO3oqwcBSIACxHkNT4T-214" value="" style="shape=partialRectangle;html=1;whiteSpace=wrap;connectable=0;overflow=hidden;fillColor=none;top=0;left=0;bottom=0;right=0;pointerEvents=1;fontSize=18;" vertex="1" parent="hDO3oqwcBSIACxHkNT4T-203">
          <mxGeometry x="1160" width="120" height="49" as="geometry">
            <mxRectangle width="120" height="49" as="alternateBounds" />
          </mxGeometry>
        </mxCell>
        <mxCell id="hDO3oqwcBSIACxHkNT4T-371" value="" style="shape=tableRow;horizontal=0;startSize=0;swimlaneHead=0;swimlaneBody=0;top=0;left=0;bottom=0;right=0;collapsible=0;dropTarget=0;fillColor=none;points=[[0,0.5],[1,0.5]];portConstraint=eastwest;fontSize=18;" vertex="1" parent="hDO3oqwcBSIACxHkNT4T-130">
          <mxGeometry y="343" width="1280" height="48" as="geometry" />
        </mxCell>
        <mxCell id="hDO3oqwcBSIACxHkNT4T-372" value="" style="shape=partialRectangle;html=1;whiteSpace=wrap;connectable=0;overflow=hidden;fillColor=none;top=0;left=0;bottom=0;right=0;pointerEvents=1;fontSize=18;" vertex="1" parent="hDO3oqwcBSIACxHkNT4T-371">
          <mxGeometry width="109" height="48" as="geometry">
            <mxRectangle width="109" height="48" as="alternateBounds" />
          </mxGeometry>
        </mxCell>
        <mxCell id="hDO3oqwcBSIACxHkNT4T-373" value="" style="shape=partialRectangle;html=1;whiteSpace=wrap;connectable=0;overflow=hidden;fillColor=none;top=0;left=0;bottom=0;right=0;pointerEvents=1;fontSize=18;" vertex="1" parent="hDO3oqwcBSIACxHkNT4T-371">
          <mxGeometry x="109" width="107" height="48" as="geometry">
            <mxRectangle width="107" height="48" as="alternateBounds" />
          </mxGeometry>
        </mxCell>
        <mxCell id="hDO3oqwcBSIACxHkNT4T-374" value="" style="shape=partialRectangle;html=1;whiteSpace=wrap;connectable=0;overflow=hidden;fillColor=none;top=0;left=0;bottom=0;right=0;pointerEvents=1;fontSize=18;" vertex="1" parent="hDO3oqwcBSIACxHkNT4T-371">
          <mxGeometry x="216" width="109" height="48" as="geometry">
            <mxRectangle width="109" height="48" as="alternateBounds" />
          </mxGeometry>
        </mxCell>
        <mxCell id="hDO3oqwcBSIACxHkNT4T-375" value="" style="shape=partialRectangle;html=1;whiteSpace=wrap;connectable=0;overflow=hidden;fillColor=none;top=0;left=0;bottom=0;right=0;pointerEvents=1;fontSize=18;" vertex="1" parent="hDO3oqwcBSIACxHkNT4T-371">
          <mxGeometry x="325" width="107" height="48" as="geometry">
            <mxRectangle width="107" height="48" as="alternateBounds" />
          </mxGeometry>
        </mxCell>
        <mxCell id="hDO3oqwcBSIACxHkNT4T-376" value="" style="shape=partialRectangle;html=1;whiteSpace=wrap;connectable=0;overflow=hidden;fillColor=none;top=0;left=0;bottom=0;right=0;pointerEvents=1;fontSize=18;" vertex="1" parent="hDO3oqwcBSIACxHkNT4T-371">
          <mxGeometry x="432" width="109" height="48" as="geometry">
            <mxRectangle width="109" height="48" as="alternateBounds" />
          </mxGeometry>
        </mxCell>
        <mxCell id="hDO3oqwcBSIACxHkNT4T-377" value="" style="shape=partialRectangle;html=1;whiteSpace=wrap;connectable=0;overflow=hidden;fillColor=none;top=0;left=0;bottom=0;right=0;pointerEvents=1;fontSize=18;" vertex="1" parent="hDO3oqwcBSIACxHkNT4T-371">
          <mxGeometry x="541" width="109" height="48" as="geometry">
            <mxRectangle width="109" height="48" as="alternateBounds" />
          </mxGeometry>
        </mxCell>
        <mxCell id="hDO3oqwcBSIACxHkNT4T-378" value="" style="shape=partialRectangle;html=1;whiteSpace=wrap;connectable=0;overflow=hidden;fillColor=none;top=0;left=0;bottom=0;right=0;pointerEvents=1;fontSize=18;" vertex="1" parent="hDO3oqwcBSIACxHkNT4T-371">
          <mxGeometry x="650" width="130" height="48" as="geometry">
            <mxRectangle width="130" height="48" as="alternateBounds" />
          </mxGeometry>
        </mxCell>
        <mxCell id="hDO3oqwcBSIACxHkNT4T-379" value="" style="shape=partialRectangle;html=1;whiteSpace=wrap;connectable=0;overflow=hidden;fillColor=none;top=0;left=0;bottom=0;right=0;pointerEvents=1;fontSize=18;" vertex="1" parent="hDO3oqwcBSIACxHkNT4T-371">
          <mxGeometry x="780" width="85" height="48" as="geometry">
            <mxRectangle width="85" height="48" as="alternateBounds" />
          </mxGeometry>
        </mxCell>
        <mxCell id="hDO3oqwcBSIACxHkNT4T-380" value="" style="shape=partialRectangle;html=1;whiteSpace=wrap;connectable=0;overflow=hidden;fillColor=none;top=0;left=0;bottom=0;right=0;pointerEvents=1;fontSize=18;" vertex="1" parent="hDO3oqwcBSIACxHkNT4T-371">
          <mxGeometry x="865" width="109" height="48" as="geometry">
            <mxRectangle width="109" height="48" as="alternateBounds" />
          </mxGeometry>
        </mxCell>
        <mxCell id="hDO3oqwcBSIACxHkNT4T-381" value="" style="shape=partialRectangle;html=1;whiteSpace=wrap;connectable=0;overflow=hidden;fillColor=none;top=0;left=0;bottom=0;right=0;pointerEvents=1;fontSize=18;" vertex="1" parent="hDO3oqwcBSIACxHkNT4T-371">
          <mxGeometry x="974" width="186" height="48" as="geometry">
            <mxRectangle width="186" height="48" as="alternateBounds" />
          </mxGeometry>
        </mxCell>
        <mxCell id="hDO3oqwcBSIACxHkNT4T-382" value="" style="shape=partialRectangle;html=1;whiteSpace=wrap;connectable=0;overflow=hidden;fillColor=none;top=0;left=0;bottom=0;right=0;pointerEvents=1;fontSize=18;" vertex="1" parent="hDO3oqwcBSIACxHkNT4T-371">
          <mxGeometry x="1160" width="120" height="48" as="geometry">
            <mxRectangle width="120" height="48" as="alternateBounds" />
          </mxGeometry>
        </mxCell>
        <mxCell id="hDO3oqwcBSIACxHkNT4T-215" value="" style="shape=tableRow;horizontal=0;startSize=0;swimlaneHead=0;swimlaneBody=0;top=0;left=0;bottom=0;right=0;collapsible=0;dropTarget=0;fillColor=none;points=[[0,0.5],[1,0.5]];portConstraint=eastwest;fontSize=18;" vertex="1" parent="hDO3oqwcBSIACxHkNT4T-130">
          <mxGeometry y="391" width="1280" height="49" as="geometry" />
        </mxCell>
        <mxCell id="hDO3oqwcBSIACxHkNT4T-216" value="" style="shape=partialRectangle;html=1;whiteSpace=wrap;connectable=0;overflow=hidden;fillColor=none;top=0;left=0;bottom=0;right=0;pointerEvents=1;fontSize=18;" vertex="1" parent="hDO3oqwcBSIACxHkNT4T-215">
          <mxGeometry width="109" height="49" as="geometry">
            <mxRectangle width="109" height="49" as="alternateBounds" />
          </mxGeometry>
        </mxCell>
        <mxCell id="hDO3oqwcBSIACxHkNT4T-217" value="" style="shape=partialRectangle;html=1;whiteSpace=wrap;connectable=0;overflow=hidden;fillColor=none;top=0;left=0;bottom=0;right=0;pointerEvents=1;fontSize=18;" vertex="1" parent="hDO3oqwcBSIACxHkNT4T-215">
          <mxGeometry x="109" width="107" height="49" as="geometry">
            <mxRectangle width="107" height="49" as="alternateBounds" />
          </mxGeometry>
        </mxCell>
        <mxCell id="hDO3oqwcBSIACxHkNT4T-218" value="" style="shape=partialRectangle;html=1;whiteSpace=wrap;connectable=0;overflow=hidden;fillColor=none;top=0;left=0;bottom=0;right=0;pointerEvents=1;fontSize=18;" vertex="1" parent="hDO3oqwcBSIACxHkNT4T-215">
          <mxGeometry x="216" width="109" height="49" as="geometry">
            <mxRectangle width="109" height="49" as="alternateBounds" />
          </mxGeometry>
        </mxCell>
        <mxCell id="hDO3oqwcBSIACxHkNT4T-219" value="" style="shape=partialRectangle;html=1;whiteSpace=wrap;connectable=0;overflow=hidden;fillColor=none;top=0;left=0;bottom=0;right=0;pointerEvents=1;fontSize=18;" vertex="1" parent="hDO3oqwcBSIACxHkNT4T-215">
          <mxGeometry x="325" width="107" height="49" as="geometry">
            <mxRectangle width="107" height="49" as="alternateBounds" />
          </mxGeometry>
        </mxCell>
        <mxCell id="hDO3oqwcBSIACxHkNT4T-220" value="" style="shape=partialRectangle;html=1;whiteSpace=wrap;connectable=0;overflow=hidden;fillColor=none;top=0;left=0;bottom=0;right=0;pointerEvents=1;fontSize=18;" vertex="1" parent="hDO3oqwcBSIACxHkNT4T-215">
          <mxGeometry x="432" width="109" height="49" as="geometry">
            <mxRectangle width="109" height="49" as="alternateBounds" />
          </mxGeometry>
        </mxCell>
        <mxCell id="hDO3oqwcBSIACxHkNT4T-221" value="" style="shape=partialRectangle;html=1;whiteSpace=wrap;connectable=0;overflow=hidden;fillColor=none;top=0;left=0;bottom=0;right=0;pointerEvents=1;fontSize=18;" vertex="1" parent="hDO3oqwcBSIACxHkNT4T-215">
          <mxGeometry x="541" width="109" height="49" as="geometry">
            <mxRectangle width="109" height="49" as="alternateBounds" />
          </mxGeometry>
        </mxCell>
        <mxCell id="hDO3oqwcBSIACxHkNT4T-222" value="" style="shape=partialRectangle;html=1;whiteSpace=wrap;connectable=0;overflow=hidden;fillColor=none;top=0;left=0;bottom=0;right=0;pointerEvents=1;fontSize=18;" vertex="1" parent="hDO3oqwcBSIACxHkNT4T-215">
          <mxGeometry x="650" width="130" height="49" as="geometry">
            <mxRectangle width="130" height="49" as="alternateBounds" />
          </mxGeometry>
        </mxCell>
        <mxCell id="hDO3oqwcBSIACxHkNT4T-223" value="" style="shape=partialRectangle;html=1;whiteSpace=wrap;connectable=0;overflow=hidden;fillColor=none;top=0;left=0;bottom=0;right=0;pointerEvents=1;fontSize=18;" vertex="1" parent="hDO3oqwcBSIACxHkNT4T-215">
          <mxGeometry x="780" width="85" height="49" as="geometry">
            <mxRectangle width="85" height="49" as="alternateBounds" />
          </mxGeometry>
        </mxCell>
        <mxCell id="hDO3oqwcBSIACxHkNT4T-224" value="" style="shape=partialRectangle;html=1;whiteSpace=wrap;connectable=0;overflow=hidden;fillColor=none;top=0;left=0;bottom=0;right=0;pointerEvents=1;fontSize=18;" vertex="1" parent="hDO3oqwcBSIACxHkNT4T-215">
          <mxGeometry x="865" width="109" height="49" as="geometry">
            <mxRectangle width="109" height="49" as="alternateBounds" />
          </mxGeometry>
        </mxCell>
        <mxCell id="hDO3oqwcBSIACxHkNT4T-225" value="" style="shape=partialRectangle;html=1;whiteSpace=wrap;connectable=0;overflow=hidden;fillColor=none;top=0;left=0;bottom=0;right=0;pointerEvents=1;fontSize=18;" vertex="1" parent="hDO3oqwcBSIACxHkNT4T-215">
          <mxGeometry x="974" width="186" height="49" as="geometry">
            <mxRectangle width="186" height="49" as="alternateBounds" />
          </mxGeometry>
        </mxCell>
        <mxCell id="hDO3oqwcBSIACxHkNT4T-226" value="" style="shape=partialRectangle;html=1;whiteSpace=wrap;connectable=0;overflow=hidden;fillColor=none;top=0;left=0;bottom=0;right=0;pointerEvents=1;fontSize=18;" vertex="1" parent="hDO3oqwcBSIACxHkNT4T-215">
          <mxGeometry x="1160" width="120" height="49" as="geometry">
            <mxRectangle width="120" height="49" as="alternateBounds" />
          </mxGeometry>
        </mxCell>
        <mxCell id="hDO3oqwcBSIACxHkNT4T-227" value="" style="shape=tableRow;horizontal=0;startSize=0;swimlaneHead=0;swimlaneBody=0;top=0;left=0;bottom=0;right=0;collapsible=0;dropTarget=0;fillColor=none;points=[[0,0.5],[1,0.5]];portConstraint=eastwest;fontSize=18;" vertex="1" parent="hDO3oqwcBSIACxHkNT4T-130">
          <mxGeometry y="440" width="1280" height="49" as="geometry" />
        </mxCell>
        <mxCell id="hDO3oqwcBSIACxHkNT4T-228" value="" style="shape=partialRectangle;html=1;whiteSpace=wrap;connectable=0;overflow=hidden;fillColor=none;top=0;left=0;bottom=0;right=0;pointerEvents=1;fontSize=18;" vertex="1" parent="hDO3oqwcBSIACxHkNT4T-227">
          <mxGeometry width="109" height="49" as="geometry">
            <mxRectangle width="109" height="49" as="alternateBounds" />
          </mxGeometry>
        </mxCell>
        <mxCell id="hDO3oqwcBSIACxHkNT4T-229" value="" style="shape=partialRectangle;html=1;whiteSpace=wrap;connectable=0;overflow=hidden;fillColor=none;top=0;left=0;bottom=0;right=0;pointerEvents=1;fontSize=18;" vertex="1" parent="hDO3oqwcBSIACxHkNT4T-227">
          <mxGeometry x="109" width="107" height="49" as="geometry">
            <mxRectangle width="107" height="49" as="alternateBounds" />
          </mxGeometry>
        </mxCell>
        <mxCell id="hDO3oqwcBSIACxHkNT4T-230" value="" style="shape=partialRectangle;html=1;whiteSpace=wrap;connectable=0;overflow=hidden;fillColor=none;top=0;left=0;bottom=0;right=0;pointerEvents=1;fontSize=18;" vertex="1" parent="hDO3oqwcBSIACxHkNT4T-227">
          <mxGeometry x="216" width="109" height="49" as="geometry">
            <mxRectangle width="109" height="49" as="alternateBounds" />
          </mxGeometry>
        </mxCell>
        <mxCell id="hDO3oqwcBSIACxHkNT4T-231" value="" style="shape=partialRectangle;html=1;whiteSpace=wrap;connectable=0;overflow=hidden;fillColor=none;top=0;left=0;bottom=0;right=0;pointerEvents=1;fontSize=18;" vertex="1" parent="hDO3oqwcBSIACxHkNT4T-227">
          <mxGeometry x="325" width="107" height="49" as="geometry">
            <mxRectangle width="107" height="49" as="alternateBounds" />
          </mxGeometry>
        </mxCell>
        <mxCell id="hDO3oqwcBSIACxHkNT4T-232" value="" style="shape=partialRectangle;html=1;whiteSpace=wrap;connectable=0;overflow=hidden;fillColor=none;top=0;left=0;bottom=0;right=0;pointerEvents=1;fontSize=18;" vertex="1" parent="hDO3oqwcBSIACxHkNT4T-227">
          <mxGeometry x="432" width="109" height="49" as="geometry">
            <mxRectangle width="109" height="49" as="alternateBounds" />
          </mxGeometry>
        </mxCell>
        <mxCell id="hDO3oqwcBSIACxHkNT4T-233" value="" style="shape=partialRectangle;html=1;whiteSpace=wrap;connectable=0;overflow=hidden;fillColor=none;top=0;left=0;bottom=0;right=0;pointerEvents=1;fontSize=18;" vertex="1" parent="hDO3oqwcBSIACxHkNT4T-227">
          <mxGeometry x="541" width="109" height="49" as="geometry">
            <mxRectangle width="109" height="49" as="alternateBounds" />
          </mxGeometry>
        </mxCell>
        <mxCell id="hDO3oqwcBSIACxHkNT4T-234" value="" style="shape=partialRectangle;html=1;whiteSpace=wrap;connectable=0;overflow=hidden;fillColor=none;top=0;left=0;bottom=0;right=0;pointerEvents=1;fontSize=18;" vertex="1" parent="hDO3oqwcBSIACxHkNT4T-227">
          <mxGeometry x="650" width="130" height="49" as="geometry">
            <mxRectangle width="130" height="49" as="alternateBounds" />
          </mxGeometry>
        </mxCell>
        <mxCell id="hDO3oqwcBSIACxHkNT4T-235" value="" style="shape=partialRectangle;html=1;whiteSpace=wrap;connectable=0;overflow=hidden;fillColor=none;top=0;left=0;bottom=0;right=0;pointerEvents=1;fontSize=18;" vertex="1" parent="hDO3oqwcBSIACxHkNT4T-227">
          <mxGeometry x="780" width="85" height="49" as="geometry">
            <mxRectangle width="85" height="49" as="alternateBounds" />
          </mxGeometry>
        </mxCell>
        <mxCell id="hDO3oqwcBSIACxHkNT4T-236" value="" style="shape=partialRectangle;html=1;whiteSpace=wrap;connectable=0;overflow=hidden;fillColor=none;top=0;left=0;bottom=0;right=0;pointerEvents=1;fontSize=18;" vertex="1" parent="hDO3oqwcBSIACxHkNT4T-227">
          <mxGeometry x="865" width="109" height="49" as="geometry">
            <mxRectangle width="109" height="49" as="alternateBounds" />
          </mxGeometry>
        </mxCell>
        <mxCell id="hDO3oqwcBSIACxHkNT4T-237" value="" style="shape=partialRectangle;html=1;whiteSpace=wrap;connectable=0;overflow=hidden;fillColor=none;top=0;left=0;bottom=0;right=0;pointerEvents=1;fontSize=18;" vertex="1" parent="hDO3oqwcBSIACxHkNT4T-227">
          <mxGeometry x="974" width="186" height="49" as="geometry">
            <mxRectangle width="186" height="49" as="alternateBounds" />
          </mxGeometry>
        </mxCell>
        <mxCell id="hDO3oqwcBSIACxHkNT4T-238" value="" style="shape=partialRectangle;html=1;whiteSpace=wrap;connectable=0;overflow=hidden;fillColor=none;top=0;left=0;bottom=0;right=0;pointerEvents=1;fontSize=18;" vertex="1" parent="hDO3oqwcBSIACxHkNT4T-227">
          <mxGeometry x="1160" width="120" height="49" as="geometry">
            <mxRectangle width="120" height="49" as="alternateBounds" />
          </mxGeometry>
        </mxCell>
        <mxCell id="hDO3oqwcBSIACxHkNT4T-239" value="" style="shape=tableRow;horizontal=0;startSize=0;swimlaneHead=0;swimlaneBody=0;top=0;left=0;bottom=0;right=0;collapsible=0;dropTarget=0;fillColor=none;points=[[0,0.5],[1,0.5]];portConstraint=eastwest;fontSize=18;" vertex="1" parent="hDO3oqwcBSIACxHkNT4T-130">
          <mxGeometry y="489" width="1280" height="46" as="geometry" />
        </mxCell>
        <mxCell id="hDO3oqwcBSIACxHkNT4T-240" value="" style="shape=partialRectangle;html=1;whiteSpace=wrap;connectable=0;overflow=hidden;fillColor=none;top=0;left=0;bottom=0;right=0;pointerEvents=1;fontSize=18;" vertex="1" parent="hDO3oqwcBSIACxHkNT4T-239">
          <mxGeometry width="109" height="46" as="geometry">
            <mxRectangle width="109" height="46" as="alternateBounds" />
          </mxGeometry>
        </mxCell>
        <mxCell id="hDO3oqwcBSIACxHkNT4T-241" value="" style="shape=partialRectangle;html=1;whiteSpace=wrap;connectable=0;overflow=hidden;fillColor=none;top=0;left=0;bottom=0;right=0;pointerEvents=1;fontSize=18;" vertex="1" parent="hDO3oqwcBSIACxHkNT4T-239">
          <mxGeometry x="109" width="107" height="46" as="geometry">
            <mxRectangle width="107" height="46" as="alternateBounds" />
          </mxGeometry>
        </mxCell>
        <mxCell id="hDO3oqwcBSIACxHkNT4T-242" value="" style="shape=partialRectangle;html=1;whiteSpace=wrap;connectable=0;overflow=hidden;fillColor=none;top=0;left=0;bottom=0;right=0;pointerEvents=1;fontSize=18;" vertex="1" parent="hDO3oqwcBSIACxHkNT4T-239">
          <mxGeometry x="216" width="109" height="46" as="geometry">
            <mxRectangle width="109" height="46" as="alternateBounds" />
          </mxGeometry>
        </mxCell>
        <mxCell id="hDO3oqwcBSIACxHkNT4T-243" value="" style="shape=partialRectangle;html=1;whiteSpace=wrap;connectable=0;overflow=hidden;fillColor=none;top=0;left=0;bottom=0;right=0;pointerEvents=1;fontSize=18;" vertex="1" parent="hDO3oqwcBSIACxHkNT4T-239">
          <mxGeometry x="325" width="107" height="46" as="geometry">
            <mxRectangle width="107" height="46" as="alternateBounds" />
          </mxGeometry>
        </mxCell>
        <mxCell id="hDO3oqwcBSIACxHkNT4T-244" value="" style="shape=partialRectangle;html=1;whiteSpace=wrap;connectable=0;overflow=hidden;fillColor=none;top=0;left=0;bottom=0;right=0;pointerEvents=1;fontSize=18;" vertex="1" parent="hDO3oqwcBSIACxHkNT4T-239">
          <mxGeometry x="432" width="109" height="46" as="geometry">
            <mxRectangle width="109" height="46" as="alternateBounds" />
          </mxGeometry>
        </mxCell>
        <mxCell id="hDO3oqwcBSIACxHkNT4T-245" value="" style="shape=partialRectangle;html=1;whiteSpace=wrap;connectable=0;overflow=hidden;fillColor=none;top=0;left=0;bottom=0;right=0;pointerEvents=1;fontSize=18;" vertex="1" parent="hDO3oqwcBSIACxHkNT4T-239">
          <mxGeometry x="541" width="109" height="46" as="geometry">
            <mxRectangle width="109" height="46" as="alternateBounds" />
          </mxGeometry>
        </mxCell>
        <mxCell id="hDO3oqwcBSIACxHkNT4T-246" value="" style="shape=partialRectangle;html=1;whiteSpace=wrap;connectable=0;overflow=hidden;fillColor=none;top=0;left=0;bottom=0;right=0;pointerEvents=1;fontSize=18;" vertex="1" parent="hDO3oqwcBSIACxHkNT4T-239">
          <mxGeometry x="650" width="130" height="46" as="geometry">
            <mxRectangle width="130" height="46" as="alternateBounds" />
          </mxGeometry>
        </mxCell>
        <mxCell id="hDO3oqwcBSIACxHkNT4T-247" value="" style="shape=partialRectangle;html=1;whiteSpace=wrap;connectable=0;overflow=hidden;fillColor=none;top=0;left=0;bottom=0;right=0;pointerEvents=1;fontSize=18;" vertex="1" parent="hDO3oqwcBSIACxHkNT4T-239">
          <mxGeometry x="780" width="85" height="46" as="geometry">
            <mxRectangle width="85" height="46" as="alternateBounds" />
          </mxGeometry>
        </mxCell>
        <mxCell id="hDO3oqwcBSIACxHkNT4T-248" value="" style="shape=partialRectangle;html=1;whiteSpace=wrap;connectable=0;overflow=hidden;fillColor=none;top=0;left=0;bottom=0;right=0;pointerEvents=1;fontSize=18;" vertex="1" parent="hDO3oqwcBSIACxHkNT4T-239">
          <mxGeometry x="865" width="109" height="46" as="geometry">
            <mxRectangle width="109" height="46" as="alternateBounds" />
          </mxGeometry>
        </mxCell>
        <mxCell id="hDO3oqwcBSIACxHkNT4T-249" value="" style="shape=partialRectangle;html=1;whiteSpace=wrap;connectable=0;overflow=hidden;fillColor=none;top=0;left=0;bottom=0;right=0;pointerEvents=1;fontSize=18;" vertex="1" parent="hDO3oqwcBSIACxHkNT4T-239">
          <mxGeometry x="974" width="186" height="46" as="geometry">
            <mxRectangle width="186" height="46" as="alternateBounds" />
          </mxGeometry>
        </mxCell>
        <mxCell id="hDO3oqwcBSIACxHkNT4T-250" value="" style="shape=partialRectangle;html=1;whiteSpace=wrap;connectable=0;overflow=hidden;fillColor=none;top=0;left=0;bottom=0;right=0;pointerEvents=1;fontSize=18;" vertex="1" parent="hDO3oqwcBSIACxHkNT4T-239">
          <mxGeometry x="1160" width="120" height="46" as="geometry">
            <mxRectangle width="120" height="46" as="alternateBounds" />
          </mxGeometry>
        </mxCell>
        <mxCell id="hDO3oqwcBSIACxHkNT4T-251" value="" style="shape=tableRow;horizontal=0;startSize=0;swimlaneHead=0;swimlaneBody=0;top=0;left=0;bottom=0;right=0;collapsible=0;dropTarget=0;fillColor=none;points=[[0,0.5],[1,0.5]];portConstraint=eastwest;fontSize=18;" vertex="1" parent="hDO3oqwcBSIACxHkNT4T-130">
          <mxGeometry y="535" width="1280" height="49" as="geometry" />
        </mxCell>
        <mxCell id="hDO3oqwcBSIACxHkNT4T-252" value="" style="shape=partialRectangle;html=1;whiteSpace=wrap;connectable=0;overflow=hidden;fillColor=none;top=0;left=0;bottom=0;right=0;pointerEvents=1;fontSize=18;" vertex="1" parent="hDO3oqwcBSIACxHkNT4T-251">
          <mxGeometry width="109" height="49" as="geometry">
            <mxRectangle width="109" height="49" as="alternateBounds" />
          </mxGeometry>
        </mxCell>
        <mxCell id="hDO3oqwcBSIACxHkNT4T-253" value="" style="shape=partialRectangle;html=1;whiteSpace=wrap;connectable=0;overflow=hidden;fillColor=none;top=0;left=0;bottom=0;right=0;pointerEvents=1;fontSize=18;" vertex="1" parent="hDO3oqwcBSIACxHkNT4T-251">
          <mxGeometry x="109" width="107" height="49" as="geometry">
            <mxRectangle width="107" height="49" as="alternateBounds" />
          </mxGeometry>
        </mxCell>
        <mxCell id="hDO3oqwcBSIACxHkNT4T-254" value="" style="shape=partialRectangle;html=1;whiteSpace=wrap;connectable=0;overflow=hidden;fillColor=none;top=0;left=0;bottom=0;right=0;pointerEvents=1;fontSize=18;" vertex="1" parent="hDO3oqwcBSIACxHkNT4T-251">
          <mxGeometry x="216" width="109" height="49" as="geometry">
            <mxRectangle width="109" height="49" as="alternateBounds" />
          </mxGeometry>
        </mxCell>
        <mxCell id="hDO3oqwcBSIACxHkNT4T-255" value="" style="shape=partialRectangle;html=1;whiteSpace=wrap;connectable=0;overflow=hidden;fillColor=none;top=0;left=0;bottom=0;right=0;pointerEvents=1;fontSize=18;" vertex="1" parent="hDO3oqwcBSIACxHkNT4T-251">
          <mxGeometry x="325" width="107" height="49" as="geometry">
            <mxRectangle width="107" height="49" as="alternateBounds" />
          </mxGeometry>
        </mxCell>
        <mxCell id="hDO3oqwcBSIACxHkNT4T-256" value="" style="shape=partialRectangle;html=1;whiteSpace=wrap;connectable=0;overflow=hidden;fillColor=none;top=0;left=0;bottom=0;right=0;pointerEvents=1;fontSize=18;" vertex="1" parent="hDO3oqwcBSIACxHkNT4T-251">
          <mxGeometry x="432" width="109" height="49" as="geometry">
            <mxRectangle width="109" height="49" as="alternateBounds" />
          </mxGeometry>
        </mxCell>
        <mxCell id="hDO3oqwcBSIACxHkNT4T-257" value="" style="shape=partialRectangle;html=1;whiteSpace=wrap;connectable=0;overflow=hidden;fillColor=none;top=0;left=0;bottom=0;right=0;pointerEvents=1;fontSize=18;" vertex="1" parent="hDO3oqwcBSIACxHkNT4T-251">
          <mxGeometry x="541" width="109" height="49" as="geometry">
            <mxRectangle width="109" height="49" as="alternateBounds" />
          </mxGeometry>
        </mxCell>
        <mxCell id="hDO3oqwcBSIACxHkNT4T-258" value="" style="shape=partialRectangle;html=1;whiteSpace=wrap;connectable=0;overflow=hidden;fillColor=none;top=0;left=0;bottom=0;right=0;pointerEvents=1;fontSize=18;" vertex="1" parent="hDO3oqwcBSIACxHkNT4T-251">
          <mxGeometry x="650" width="130" height="49" as="geometry">
            <mxRectangle width="130" height="49" as="alternateBounds" />
          </mxGeometry>
        </mxCell>
        <mxCell id="hDO3oqwcBSIACxHkNT4T-259" value="" style="shape=partialRectangle;html=1;whiteSpace=wrap;connectable=0;overflow=hidden;fillColor=none;top=0;left=0;bottom=0;right=0;pointerEvents=1;fontSize=18;" vertex="1" parent="hDO3oqwcBSIACxHkNT4T-251">
          <mxGeometry x="780" width="85" height="49" as="geometry">
            <mxRectangle width="85" height="49" as="alternateBounds" />
          </mxGeometry>
        </mxCell>
        <mxCell id="hDO3oqwcBSIACxHkNT4T-260" value="" style="shape=partialRectangle;html=1;whiteSpace=wrap;connectable=0;overflow=hidden;fillColor=none;top=0;left=0;bottom=0;right=0;pointerEvents=1;fontSize=18;" vertex="1" parent="hDO3oqwcBSIACxHkNT4T-251">
          <mxGeometry x="865" width="109" height="49" as="geometry">
            <mxRectangle width="109" height="49" as="alternateBounds" />
          </mxGeometry>
        </mxCell>
        <mxCell id="hDO3oqwcBSIACxHkNT4T-261" value="" style="shape=partialRectangle;html=1;whiteSpace=wrap;connectable=0;overflow=hidden;fillColor=none;top=0;left=0;bottom=0;right=0;pointerEvents=1;fontSize=18;" vertex="1" parent="hDO3oqwcBSIACxHkNT4T-251">
          <mxGeometry x="974" width="186" height="49" as="geometry">
            <mxRectangle width="186" height="49" as="alternateBounds" />
          </mxGeometry>
        </mxCell>
        <mxCell id="hDO3oqwcBSIACxHkNT4T-262" value="" style="shape=partialRectangle;html=1;whiteSpace=wrap;connectable=0;overflow=hidden;fillColor=none;top=0;left=0;bottom=0;right=0;pointerEvents=1;fontSize=18;" vertex="1" parent="hDO3oqwcBSIACxHkNT4T-251">
          <mxGeometry x="1160" width="120" height="49" as="geometry">
            <mxRectangle width="120" height="49" as="alternateBounds" />
          </mxGeometry>
        </mxCell>
        <mxCell id="hDO3oqwcBSIACxHkNT4T-263" value="" style="shape=tableRow;horizontal=0;startSize=0;swimlaneHead=0;swimlaneBody=0;top=0;left=0;bottom=0;right=0;collapsible=0;dropTarget=0;fillColor=none;points=[[0,0.5],[1,0.5]];portConstraint=eastwest;fontSize=18;" vertex="1" parent="hDO3oqwcBSIACxHkNT4T-130">
          <mxGeometry y="584" width="1280" height="49" as="geometry" />
        </mxCell>
        <mxCell id="hDO3oqwcBSIACxHkNT4T-264" value="" style="shape=partialRectangle;html=1;whiteSpace=wrap;connectable=0;overflow=hidden;fillColor=none;top=0;left=0;bottom=0;right=0;pointerEvents=1;fontSize=18;" vertex="1" parent="hDO3oqwcBSIACxHkNT4T-263">
          <mxGeometry width="109" height="49" as="geometry">
            <mxRectangle width="109" height="49" as="alternateBounds" />
          </mxGeometry>
        </mxCell>
        <mxCell id="hDO3oqwcBSIACxHkNT4T-265" value="" style="shape=partialRectangle;html=1;whiteSpace=wrap;connectable=0;overflow=hidden;fillColor=none;top=0;left=0;bottom=0;right=0;pointerEvents=1;fontSize=18;" vertex="1" parent="hDO3oqwcBSIACxHkNT4T-263">
          <mxGeometry x="109" width="107" height="49" as="geometry">
            <mxRectangle width="107" height="49" as="alternateBounds" />
          </mxGeometry>
        </mxCell>
        <mxCell id="hDO3oqwcBSIACxHkNT4T-266" value="" style="shape=partialRectangle;html=1;whiteSpace=wrap;connectable=0;overflow=hidden;fillColor=none;top=0;left=0;bottom=0;right=0;pointerEvents=1;fontSize=18;" vertex="1" parent="hDO3oqwcBSIACxHkNT4T-263">
          <mxGeometry x="216" width="109" height="49" as="geometry">
            <mxRectangle width="109" height="49" as="alternateBounds" />
          </mxGeometry>
        </mxCell>
        <mxCell id="hDO3oqwcBSIACxHkNT4T-267" value="" style="shape=partialRectangle;html=1;whiteSpace=wrap;connectable=0;overflow=hidden;fillColor=none;top=0;left=0;bottom=0;right=0;pointerEvents=1;fontSize=18;" vertex="1" parent="hDO3oqwcBSIACxHkNT4T-263">
          <mxGeometry x="325" width="107" height="49" as="geometry">
            <mxRectangle width="107" height="49" as="alternateBounds" />
          </mxGeometry>
        </mxCell>
        <mxCell id="hDO3oqwcBSIACxHkNT4T-268" value="" style="shape=partialRectangle;html=1;whiteSpace=wrap;connectable=0;overflow=hidden;fillColor=none;top=0;left=0;bottom=0;right=0;pointerEvents=1;fontSize=18;" vertex="1" parent="hDO3oqwcBSIACxHkNT4T-263">
          <mxGeometry x="432" width="109" height="49" as="geometry">
            <mxRectangle width="109" height="49" as="alternateBounds" />
          </mxGeometry>
        </mxCell>
        <mxCell id="hDO3oqwcBSIACxHkNT4T-269" value="" style="shape=partialRectangle;html=1;whiteSpace=wrap;connectable=0;overflow=hidden;fillColor=none;top=0;left=0;bottom=0;right=0;pointerEvents=1;fontSize=18;" vertex="1" parent="hDO3oqwcBSIACxHkNT4T-263">
          <mxGeometry x="541" width="109" height="49" as="geometry">
            <mxRectangle width="109" height="49" as="alternateBounds" />
          </mxGeometry>
        </mxCell>
        <mxCell id="hDO3oqwcBSIACxHkNT4T-270" value="" style="shape=partialRectangle;html=1;whiteSpace=wrap;connectable=0;overflow=hidden;fillColor=none;top=0;left=0;bottom=0;right=0;pointerEvents=1;fontSize=18;" vertex="1" parent="hDO3oqwcBSIACxHkNT4T-263">
          <mxGeometry x="650" width="130" height="49" as="geometry">
            <mxRectangle width="130" height="49" as="alternateBounds" />
          </mxGeometry>
        </mxCell>
        <mxCell id="hDO3oqwcBSIACxHkNT4T-271" value="" style="shape=partialRectangle;html=1;whiteSpace=wrap;connectable=0;overflow=hidden;fillColor=none;top=0;left=0;bottom=0;right=0;pointerEvents=1;fontSize=18;" vertex="1" parent="hDO3oqwcBSIACxHkNT4T-263">
          <mxGeometry x="780" width="85" height="49" as="geometry">
            <mxRectangle width="85" height="49" as="alternateBounds" />
          </mxGeometry>
        </mxCell>
        <mxCell id="hDO3oqwcBSIACxHkNT4T-272" value="" style="shape=partialRectangle;html=1;whiteSpace=wrap;connectable=0;overflow=hidden;fillColor=none;top=0;left=0;bottom=0;right=0;pointerEvents=1;fontSize=18;" vertex="1" parent="hDO3oqwcBSIACxHkNT4T-263">
          <mxGeometry x="865" width="109" height="49" as="geometry">
            <mxRectangle width="109" height="49" as="alternateBounds" />
          </mxGeometry>
        </mxCell>
        <mxCell id="hDO3oqwcBSIACxHkNT4T-273" value="" style="shape=partialRectangle;html=1;whiteSpace=wrap;connectable=0;overflow=hidden;fillColor=none;top=0;left=0;bottom=0;right=0;pointerEvents=1;fontSize=18;" vertex="1" parent="hDO3oqwcBSIACxHkNT4T-263">
          <mxGeometry x="974" width="186" height="49" as="geometry">
            <mxRectangle width="186" height="49" as="alternateBounds" />
          </mxGeometry>
        </mxCell>
        <mxCell id="hDO3oqwcBSIACxHkNT4T-274" value="" style="shape=partialRectangle;html=1;whiteSpace=wrap;connectable=0;overflow=hidden;fillColor=none;top=0;left=0;bottom=0;right=0;pointerEvents=1;fontSize=18;" vertex="1" parent="hDO3oqwcBSIACxHkNT4T-263">
          <mxGeometry x="1160" width="120" height="49" as="geometry">
            <mxRectangle width="120" height="49" as="alternateBounds" />
          </mxGeometry>
        </mxCell>
        <mxCell id="hDO3oqwcBSIACxHkNT4T-275" value="" style="shape=tableRow;horizontal=0;startSize=0;swimlaneHead=0;swimlaneBody=0;top=0;left=0;bottom=0;right=0;collapsible=0;dropTarget=0;fillColor=none;points=[[0,0.5],[1,0.5]];portConstraint=eastwest;fontSize=18;" vertex="1" parent="hDO3oqwcBSIACxHkNT4T-130">
          <mxGeometry y="633" width="1280" height="48" as="geometry" />
        </mxCell>
        <mxCell id="hDO3oqwcBSIACxHkNT4T-276" value="" style="shape=partialRectangle;html=1;whiteSpace=wrap;connectable=0;overflow=hidden;fillColor=none;top=0;left=0;bottom=0;right=0;pointerEvents=1;fontSize=18;" vertex="1" parent="hDO3oqwcBSIACxHkNT4T-275">
          <mxGeometry width="109" height="48" as="geometry">
            <mxRectangle width="109" height="48" as="alternateBounds" />
          </mxGeometry>
        </mxCell>
        <mxCell id="hDO3oqwcBSIACxHkNT4T-277" value="" style="shape=partialRectangle;html=1;whiteSpace=wrap;connectable=0;overflow=hidden;fillColor=none;top=0;left=0;bottom=0;right=0;pointerEvents=1;fontSize=18;" vertex="1" parent="hDO3oqwcBSIACxHkNT4T-275">
          <mxGeometry x="109" width="107" height="48" as="geometry">
            <mxRectangle width="107" height="48" as="alternateBounds" />
          </mxGeometry>
        </mxCell>
        <mxCell id="hDO3oqwcBSIACxHkNT4T-278" value="" style="shape=partialRectangle;html=1;whiteSpace=wrap;connectable=0;overflow=hidden;fillColor=none;top=0;left=0;bottom=0;right=0;pointerEvents=1;fontSize=18;" vertex="1" parent="hDO3oqwcBSIACxHkNT4T-275">
          <mxGeometry x="216" width="109" height="48" as="geometry">
            <mxRectangle width="109" height="48" as="alternateBounds" />
          </mxGeometry>
        </mxCell>
        <mxCell id="hDO3oqwcBSIACxHkNT4T-279" value="" style="shape=partialRectangle;html=1;whiteSpace=wrap;connectable=0;overflow=hidden;fillColor=none;top=0;left=0;bottom=0;right=0;pointerEvents=1;fontSize=18;" vertex="1" parent="hDO3oqwcBSIACxHkNT4T-275">
          <mxGeometry x="325" width="107" height="48" as="geometry">
            <mxRectangle width="107" height="48" as="alternateBounds" />
          </mxGeometry>
        </mxCell>
        <mxCell id="hDO3oqwcBSIACxHkNT4T-280" value="" style="shape=partialRectangle;html=1;whiteSpace=wrap;connectable=0;overflow=hidden;fillColor=none;top=0;left=0;bottom=0;right=0;pointerEvents=1;fontSize=18;" vertex="1" parent="hDO3oqwcBSIACxHkNT4T-275">
          <mxGeometry x="432" width="109" height="48" as="geometry">
            <mxRectangle width="109" height="48" as="alternateBounds" />
          </mxGeometry>
        </mxCell>
        <mxCell id="hDO3oqwcBSIACxHkNT4T-281" value="" style="shape=partialRectangle;html=1;whiteSpace=wrap;connectable=0;overflow=hidden;fillColor=none;top=0;left=0;bottom=0;right=0;pointerEvents=1;fontSize=18;" vertex="1" parent="hDO3oqwcBSIACxHkNT4T-275">
          <mxGeometry x="541" width="109" height="48" as="geometry">
            <mxRectangle width="109" height="48" as="alternateBounds" />
          </mxGeometry>
        </mxCell>
        <mxCell id="hDO3oqwcBSIACxHkNT4T-282" value="" style="shape=partialRectangle;html=1;whiteSpace=wrap;connectable=0;overflow=hidden;fillColor=none;top=0;left=0;bottom=0;right=0;pointerEvents=1;fontSize=18;" vertex="1" parent="hDO3oqwcBSIACxHkNT4T-275">
          <mxGeometry x="650" width="130" height="48" as="geometry">
            <mxRectangle width="130" height="48" as="alternateBounds" />
          </mxGeometry>
        </mxCell>
        <mxCell id="hDO3oqwcBSIACxHkNT4T-283" value="" style="shape=partialRectangle;html=1;whiteSpace=wrap;connectable=0;overflow=hidden;fillColor=none;top=0;left=0;bottom=0;right=0;pointerEvents=1;fontSize=18;" vertex="1" parent="hDO3oqwcBSIACxHkNT4T-275">
          <mxGeometry x="780" width="85" height="48" as="geometry">
            <mxRectangle width="85" height="48" as="alternateBounds" />
          </mxGeometry>
        </mxCell>
        <mxCell id="hDO3oqwcBSIACxHkNT4T-284" value="" style="shape=partialRectangle;html=1;whiteSpace=wrap;connectable=0;overflow=hidden;fillColor=none;top=0;left=0;bottom=0;right=0;pointerEvents=1;fontSize=18;" vertex="1" parent="hDO3oqwcBSIACxHkNT4T-275">
          <mxGeometry x="865" width="109" height="48" as="geometry">
            <mxRectangle width="109" height="48" as="alternateBounds" />
          </mxGeometry>
        </mxCell>
        <mxCell id="hDO3oqwcBSIACxHkNT4T-285" value="" style="shape=partialRectangle;html=1;whiteSpace=wrap;connectable=0;overflow=hidden;fillColor=none;top=0;left=0;bottom=0;right=0;pointerEvents=1;fontSize=18;" vertex="1" parent="hDO3oqwcBSIACxHkNT4T-275">
          <mxGeometry x="974" width="186" height="48" as="geometry">
            <mxRectangle width="186" height="48" as="alternateBounds" />
          </mxGeometry>
        </mxCell>
        <mxCell id="hDO3oqwcBSIACxHkNT4T-286" value="" style="shape=partialRectangle;html=1;whiteSpace=wrap;connectable=0;overflow=hidden;fillColor=none;top=0;left=0;bottom=0;right=0;pointerEvents=1;fontSize=18;" vertex="1" parent="hDO3oqwcBSIACxHkNT4T-275">
          <mxGeometry x="1160" width="120" height="48" as="geometry">
            <mxRectangle width="120" height="48" as="alternateBounds" />
          </mxGeometry>
        </mxCell>
        <mxCell id="hDO3oqwcBSIACxHkNT4T-287" value="" style="shape=tableRow;horizontal=0;startSize=0;swimlaneHead=0;swimlaneBody=0;top=0;left=0;bottom=0;right=0;collapsible=0;dropTarget=0;fillColor=none;points=[[0,0.5],[1,0.5]];portConstraint=eastwest;fontSize=18;" vertex="1" parent="hDO3oqwcBSIACxHkNT4T-130">
          <mxGeometry y="681" width="1280" height="49" as="geometry" />
        </mxCell>
        <mxCell id="hDO3oqwcBSIACxHkNT4T-288" value="" style="shape=partialRectangle;html=1;whiteSpace=wrap;connectable=0;overflow=hidden;fillColor=none;top=0;left=0;bottom=0;right=0;pointerEvents=1;fontSize=18;" vertex="1" parent="hDO3oqwcBSIACxHkNT4T-287">
          <mxGeometry width="109" height="49" as="geometry">
            <mxRectangle width="109" height="49" as="alternateBounds" />
          </mxGeometry>
        </mxCell>
        <mxCell id="hDO3oqwcBSIACxHkNT4T-289" value="" style="shape=partialRectangle;html=1;whiteSpace=wrap;connectable=0;overflow=hidden;fillColor=none;top=0;left=0;bottom=0;right=0;pointerEvents=1;fontSize=18;" vertex="1" parent="hDO3oqwcBSIACxHkNT4T-287">
          <mxGeometry x="109" width="107" height="49" as="geometry">
            <mxRectangle width="107" height="49" as="alternateBounds" />
          </mxGeometry>
        </mxCell>
        <mxCell id="hDO3oqwcBSIACxHkNT4T-290" value="" style="shape=partialRectangle;html=1;whiteSpace=wrap;connectable=0;overflow=hidden;fillColor=none;top=0;left=0;bottom=0;right=0;pointerEvents=1;fontSize=18;" vertex="1" parent="hDO3oqwcBSIACxHkNT4T-287">
          <mxGeometry x="216" width="109" height="49" as="geometry">
            <mxRectangle width="109" height="49" as="alternateBounds" />
          </mxGeometry>
        </mxCell>
        <mxCell id="hDO3oqwcBSIACxHkNT4T-291" value="" style="shape=partialRectangle;html=1;whiteSpace=wrap;connectable=0;overflow=hidden;fillColor=none;top=0;left=0;bottom=0;right=0;pointerEvents=1;fontSize=18;" vertex="1" parent="hDO3oqwcBSIACxHkNT4T-287">
          <mxGeometry x="325" width="107" height="49" as="geometry">
            <mxRectangle width="107" height="49" as="alternateBounds" />
          </mxGeometry>
        </mxCell>
        <mxCell id="hDO3oqwcBSIACxHkNT4T-292" value="" style="shape=partialRectangle;html=1;whiteSpace=wrap;connectable=0;overflow=hidden;fillColor=none;top=0;left=0;bottom=0;right=0;pointerEvents=1;fontSize=18;" vertex="1" parent="hDO3oqwcBSIACxHkNT4T-287">
          <mxGeometry x="432" width="109" height="49" as="geometry">
            <mxRectangle width="109" height="49" as="alternateBounds" />
          </mxGeometry>
        </mxCell>
        <mxCell id="hDO3oqwcBSIACxHkNT4T-293" value="" style="shape=partialRectangle;html=1;whiteSpace=wrap;connectable=0;overflow=hidden;fillColor=none;top=0;left=0;bottom=0;right=0;pointerEvents=1;fontSize=18;" vertex="1" parent="hDO3oqwcBSIACxHkNT4T-287">
          <mxGeometry x="541" width="109" height="49" as="geometry">
            <mxRectangle width="109" height="49" as="alternateBounds" />
          </mxGeometry>
        </mxCell>
        <mxCell id="hDO3oqwcBSIACxHkNT4T-294" value="" style="shape=partialRectangle;html=1;whiteSpace=wrap;connectable=0;overflow=hidden;fillColor=none;top=0;left=0;bottom=0;right=0;pointerEvents=1;fontSize=18;" vertex="1" parent="hDO3oqwcBSIACxHkNT4T-287">
          <mxGeometry x="650" width="130" height="49" as="geometry">
            <mxRectangle width="130" height="49" as="alternateBounds" />
          </mxGeometry>
        </mxCell>
        <mxCell id="hDO3oqwcBSIACxHkNT4T-295" value="" style="shape=partialRectangle;html=1;whiteSpace=wrap;connectable=0;overflow=hidden;fillColor=none;top=0;left=0;bottom=0;right=0;pointerEvents=1;fontSize=18;" vertex="1" parent="hDO3oqwcBSIACxHkNT4T-287">
          <mxGeometry x="780" width="85" height="49" as="geometry">
            <mxRectangle width="85" height="49" as="alternateBounds" />
          </mxGeometry>
        </mxCell>
        <mxCell id="hDO3oqwcBSIACxHkNT4T-296" value="" style="shape=partialRectangle;html=1;whiteSpace=wrap;connectable=0;overflow=hidden;fillColor=none;top=0;left=0;bottom=0;right=0;pointerEvents=1;fontSize=18;" vertex="1" parent="hDO3oqwcBSIACxHkNT4T-287">
          <mxGeometry x="865" width="109" height="49" as="geometry">
            <mxRectangle width="109" height="49" as="alternateBounds" />
          </mxGeometry>
        </mxCell>
        <mxCell id="hDO3oqwcBSIACxHkNT4T-297" value="" style="shape=partialRectangle;html=1;whiteSpace=wrap;connectable=0;overflow=hidden;fillColor=none;top=0;left=0;bottom=0;right=0;pointerEvents=1;fontSize=18;" vertex="1" parent="hDO3oqwcBSIACxHkNT4T-287">
          <mxGeometry x="974" width="186" height="49" as="geometry">
            <mxRectangle width="186" height="49" as="alternateBounds" />
          </mxGeometry>
        </mxCell>
        <mxCell id="hDO3oqwcBSIACxHkNT4T-298" value="" style="shape=partialRectangle;html=1;whiteSpace=wrap;connectable=0;overflow=hidden;fillColor=none;top=0;left=0;bottom=0;right=0;pointerEvents=1;fontSize=18;" vertex="1" parent="hDO3oqwcBSIACxHkNT4T-287">
          <mxGeometry x="1160" width="120" height="49" as="geometry">
            <mxRectangle width="120" height="49" as="alternateBounds" />
          </mxGeometry>
        </mxCell>
        <mxCell id="hDO3oqwcBSIACxHkNT4T-299" value="" style="shape=tableRow;horizontal=0;startSize=0;swimlaneHead=0;swimlaneBody=0;top=0;left=0;bottom=0;right=0;collapsible=0;dropTarget=0;fillColor=none;points=[[0,0.5],[1,0.5]];portConstraint=eastwest;fontSize=18;" vertex="1" parent="hDO3oqwcBSIACxHkNT4T-130">
          <mxGeometry y="730" width="1280" height="49" as="geometry" />
        </mxCell>
        <mxCell id="hDO3oqwcBSIACxHkNT4T-300" value="" style="shape=partialRectangle;html=1;whiteSpace=wrap;connectable=0;overflow=hidden;fillColor=none;top=0;left=0;bottom=0;right=0;pointerEvents=1;fontSize=18;" vertex="1" parent="hDO3oqwcBSIACxHkNT4T-299">
          <mxGeometry width="109" height="49" as="geometry">
            <mxRectangle width="109" height="49" as="alternateBounds" />
          </mxGeometry>
        </mxCell>
        <mxCell id="hDO3oqwcBSIACxHkNT4T-301" value="" style="shape=partialRectangle;html=1;whiteSpace=wrap;connectable=0;overflow=hidden;fillColor=none;top=0;left=0;bottom=0;right=0;pointerEvents=1;fontSize=18;" vertex="1" parent="hDO3oqwcBSIACxHkNT4T-299">
          <mxGeometry x="109" width="107" height="49" as="geometry">
            <mxRectangle width="107" height="49" as="alternateBounds" />
          </mxGeometry>
        </mxCell>
        <mxCell id="hDO3oqwcBSIACxHkNT4T-302" value="" style="shape=partialRectangle;html=1;whiteSpace=wrap;connectable=0;overflow=hidden;fillColor=none;top=0;left=0;bottom=0;right=0;pointerEvents=1;fontSize=18;" vertex="1" parent="hDO3oqwcBSIACxHkNT4T-299">
          <mxGeometry x="216" width="109" height="49" as="geometry">
            <mxRectangle width="109" height="49" as="alternateBounds" />
          </mxGeometry>
        </mxCell>
        <mxCell id="hDO3oqwcBSIACxHkNT4T-303" value="" style="shape=partialRectangle;html=1;whiteSpace=wrap;connectable=0;overflow=hidden;fillColor=none;top=0;left=0;bottom=0;right=0;pointerEvents=1;fontSize=18;" vertex="1" parent="hDO3oqwcBSIACxHkNT4T-299">
          <mxGeometry x="325" width="107" height="49" as="geometry">
            <mxRectangle width="107" height="49" as="alternateBounds" />
          </mxGeometry>
        </mxCell>
        <mxCell id="hDO3oqwcBSIACxHkNT4T-304" value="" style="shape=partialRectangle;html=1;whiteSpace=wrap;connectable=0;overflow=hidden;fillColor=none;top=0;left=0;bottom=0;right=0;pointerEvents=1;fontSize=18;" vertex="1" parent="hDO3oqwcBSIACxHkNT4T-299">
          <mxGeometry x="432" width="109" height="49" as="geometry">
            <mxRectangle width="109" height="49" as="alternateBounds" />
          </mxGeometry>
        </mxCell>
        <mxCell id="hDO3oqwcBSIACxHkNT4T-305" value="" style="shape=partialRectangle;html=1;whiteSpace=wrap;connectable=0;overflow=hidden;fillColor=none;top=0;left=0;bottom=0;right=0;pointerEvents=1;fontSize=18;" vertex="1" parent="hDO3oqwcBSIACxHkNT4T-299">
          <mxGeometry x="541" width="109" height="49" as="geometry">
            <mxRectangle width="109" height="49" as="alternateBounds" />
          </mxGeometry>
        </mxCell>
        <mxCell id="hDO3oqwcBSIACxHkNT4T-306" value="" style="shape=partialRectangle;html=1;whiteSpace=wrap;connectable=0;overflow=hidden;fillColor=none;top=0;left=0;bottom=0;right=0;pointerEvents=1;fontSize=18;" vertex="1" parent="hDO3oqwcBSIACxHkNT4T-299">
          <mxGeometry x="650" width="130" height="49" as="geometry">
            <mxRectangle width="130" height="49" as="alternateBounds" />
          </mxGeometry>
        </mxCell>
        <mxCell id="hDO3oqwcBSIACxHkNT4T-307" value="" style="shape=partialRectangle;html=1;whiteSpace=wrap;connectable=0;overflow=hidden;fillColor=none;top=0;left=0;bottom=0;right=0;pointerEvents=1;fontSize=18;" vertex="1" parent="hDO3oqwcBSIACxHkNT4T-299">
          <mxGeometry x="780" width="85" height="49" as="geometry">
            <mxRectangle width="85" height="49" as="alternateBounds" />
          </mxGeometry>
        </mxCell>
        <mxCell id="hDO3oqwcBSIACxHkNT4T-308" value="" style="shape=partialRectangle;html=1;whiteSpace=wrap;connectable=0;overflow=hidden;fillColor=none;top=0;left=0;bottom=0;right=0;pointerEvents=1;fontSize=18;" vertex="1" parent="hDO3oqwcBSIACxHkNT4T-299">
          <mxGeometry x="865" width="109" height="49" as="geometry">
            <mxRectangle width="109" height="49" as="alternateBounds" />
          </mxGeometry>
        </mxCell>
        <mxCell id="hDO3oqwcBSIACxHkNT4T-309" value="" style="shape=partialRectangle;html=1;whiteSpace=wrap;connectable=0;overflow=hidden;fillColor=none;top=0;left=0;bottom=0;right=0;pointerEvents=1;fontSize=18;" vertex="1" parent="hDO3oqwcBSIACxHkNT4T-299">
          <mxGeometry x="974" width="186" height="49" as="geometry">
            <mxRectangle width="186" height="49" as="alternateBounds" />
          </mxGeometry>
        </mxCell>
        <mxCell id="hDO3oqwcBSIACxHkNT4T-310" value="" style="shape=partialRectangle;html=1;whiteSpace=wrap;connectable=0;overflow=hidden;fillColor=none;top=0;left=0;bottom=0;right=0;pointerEvents=1;fontSize=18;" vertex="1" parent="hDO3oqwcBSIACxHkNT4T-299">
          <mxGeometry x="1160" width="120" height="49" as="geometry">
            <mxRectangle width="120" height="49" as="alternateBounds" />
          </mxGeometry>
        </mxCell>
        <mxCell id="hDO3oqwcBSIACxHkNT4T-311" value="" style="shape=tableRow;horizontal=0;startSize=0;swimlaneHead=0;swimlaneBody=0;top=0;left=0;bottom=0;right=0;collapsible=0;dropTarget=0;fillColor=none;points=[[0,0.5],[1,0.5]];portConstraint=eastwest;fontSize=18;" vertex="1" parent="hDO3oqwcBSIACxHkNT4T-130">
          <mxGeometry y="779" width="1280" height="48" as="geometry" />
        </mxCell>
        <mxCell id="hDO3oqwcBSIACxHkNT4T-312" value="" style="shape=partialRectangle;html=1;whiteSpace=wrap;connectable=0;overflow=hidden;fillColor=none;top=0;left=0;bottom=0;right=0;pointerEvents=1;fontSize=18;" vertex="1" parent="hDO3oqwcBSIACxHkNT4T-311">
          <mxGeometry width="109" height="48" as="geometry">
            <mxRectangle width="109" height="48" as="alternateBounds" />
          </mxGeometry>
        </mxCell>
        <mxCell id="hDO3oqwcBSIACxHkNT4T-313" value="" style="shape=partialRectangle;html=1;whiteSpace=wrap;connectable=0;overflow=hidden;fillColor=none;top=0;left=0;bottom=0;right=0;pointerEvents=1;fontSize=18;" vertex="1" parent="hDO3oqwcBSIACxHkNT4T-311">
          <mxGeometry x="109" width="107" height="48" as="geometry">
            <mxRectangle width="107" height="48" as="alternateBounds" />
          </mxGeometry>
        </mxCell>
        <mxCell id="hDO3oqwcBSIACxHkNT4T-314" value="" style="shape=partialRectangle;html=1;whiteSpace=wrap;connectable=0;overflow=hidden;fillColor=none;top=0;left=0;bottom=0;right=0;pointerEvents=1;fontSize=18;" vertex="1" parent="hDO3oqwcBSIACxHkNT4T-311">
          <mxGeometry x="216" width="109" height="48" as="geometry">
            <mxRectangle width="109" height="48" as="alternateBounds" />
          </mxGeometry>
        </mxCell>
        <mxCell id="hDO3oqwcBSIACxHkNT4T-315" value="" style="shape=partialRectangle;html=1;whiteSpace=wrap;connectable=0;overflow=hidden;fillColor=none;top=0;left=0;bottom=0;right=0;pointerEvents=1;fontSize=18;" vertex="1" parent="hDO3oqwcBSIACxHkNT4T-311">
          <mxGeometry x="325" width="107" height="48" as="geometry">
            <mxRectangle width="107" height="48" as="alternateBounds" />
          </mxGeometry>
        </mxCell>
        <mxCell id="hDO3oqwcBSIACxHkNT4T-316" value="" style="shape=partialRectangle;html=1;whiteSpace=wrap;connectable=0;overflow=hidden;fillColor=none;top=0;left=0;bottom=0;right=0;pointerEvents=1;fontSize=18;" vertex="1" parent="hDO3oqwcBSIACxHkNT4T-311">
          <mxGeometry x="432" width="109" height="48" as="geometry">
            <mxRectangle width="109" height="48" as="alternateBounds" />
          </mxGeometry>
        </mxCell>
        <mxCell id="hDO3oqwcBSIACxHkNT4T-317" value="" style="shape=partialRectangle;html=1;whiteSpace=wrap;connectable=0;overflow=hidden;fillColor=none;top=0;left=0;bottom=0;right=0;pointerEvents=1;fontSize=18;" vertex="1" parent="hDO3oqwcBSIACxHkNT4T-311">
          <mxGeometry x="541" width="109" height="48" as="geometry">
            <mxRectangle width="109" height="48" as="alternateBounds" />
          </mxGeometry>
        </mxCell>
        <mxCell id="hDO3oqwcBSIACxHkNT4T-318" value="" style="shape=partialRectangle;html=1;whiteSpace=wrap;connectable=0;overflow=hidden;fillColor=none;top=0;left=0;bottom=0;right=0;pointerEvents=1;fontSize=18;" vertex="1" parent="hDO3oqwcBSIACxHkNT4T-311">
          <mxGeometry x="650" width="130" height="48" as="geometry">
            <mxRectangle width="130" height="48" as="alternateBounds" />
          </mxGeometry>
        </mxCell>
        <mxCell id="hDO3oqwcBSIACxHkNT4T-319" value="" style="shape=partialRectangle;html=1;whiteSpace=wrap;connectable=0;overflow=hidden;fillColor=none;top=0;left=0;bottom=0;right=0;pointerEvents=1;fontSize=18;" vertex="1" parent="hDO3oqwcBSIACxHkNT4T-311">
          <mxGeometry x="780" width="85" height="48" as="geometry">
            <mxRectangle width="85" height="48" as="alternateBounds" />
          </mxGeometry>
        </mxCell>
        <mxCell id="hDO3oqwcBSIACxHkNT4T-320" value="" style="shape=partialRectangle;html=1;whiteSpace=wrap;connectable=0;overflow=hidden;fillColor=none;top=0;left=0;bottom=0;right=0;pointerEvents=1;fontSize=18;" vertex="1" parent="hDO3oqwcBSIACxHkNT4T-311">
          <mxGeometry x="865" width="109" height="48" as="geometry">
            <mxRectangle width="109" height="48" as="alternateBounds" />
          </mxGeometry>
        </mxCell>
        <mxCell id="hDO3oqwcBSIACxHkNT4T-321" value="" style="shape=partialRectangle;html=1;whiteSpace=wrap;connectable=0;overflow=hidden;fillColor=none;top=0;left=0;bottom=0;right=0;pointerEvents=1;fontSize=18;" vertex="1" parent="hDO3oqwcBSIACxHkNT4T-311">
          <mxGeometry x="974" width="186" height="48" as="geometry">
            <mxRectangle width="186" height="48" as="alternateBounds" />
          </mxGeometry>
        </mxCell>
        <mxCell id="hDO3oqwcBSIACxHkNT4T-322" value="" style="shape=partialRectangle;html=1;whiteSpace=wrap;connectable=0;overflow=hidden;fillColor=none;top=0;left=0;bottom=0;right=0;pointerEvents=1;fontSize=18;" vertex="1" parent="hDO3oqwcBSIACxHkNT4T-311">
          <mxGeometry x="1160" width="120" height="48" as="geometry">
            <mxRectangle width="120" height="48" as="alternateBounds" />
          </mxGeometry>
        </mxCell>
        <mxCell id="hDO3oqwcBSIACxHkNT4T-323" value="" style="shape=tableRow;horizontal=0;startSize=0;swimlaneHead=0;swimlaneBody=0;top=0;left=0;bottom=0;right=0;collapsible=0;dropTarget=0;fillColor=none;points=[[0,0.5],[1,0.5]];portConstraint=eastwest;fontSize=18;" vertex="1" parent="hDO3oqwcBSIACxHkNT4T-130">
          <mxGeometry y="827" width="1280" height="49" as="geometry" />
        </mxCell>
        <mxCell id="hDO3oqwcBSIACxHkNT4T-324" value="" style="shape=partialRectangle;html=1;whiteSpace=wrap;connectable=0;overflow=hidden;fillColor=none;top=0;left=0;bottom=0;right=0;pointerEvents=1;fontSize=18;" vertex="1" parent="hDO3oqwcBSIACxHkNT4T-323">
          <mxGeometry width="109" height="49" as="geometry">
            <mxRectangle width="109" height="49" as="alternateBounds" />
          </mxGeometry>
        </mxCell>
        <mxCell id="hDO3oqwcBSIACxHkNT4T-325" value="" style="shape=partialRectangle;html=1;whiteSpace=wrap;connectable=0;overflow=hidden;fillColor=none;top=0;left=0;bottom=0;right=0;pointerEvents=1;fontSize=18;" vertex="1" parent="hDO3oqwcBSIACxHkNT4T-323">
          <mxGeometry x="109" width="107" height="49" as="geometry">
            <mxRectangle width="107" height="49" as="alternateBounds" />
          </mxGeometry>
        </mxCell>
        <mxCell id="hDO3oqwcBSIACxHkNT4T-326" value="" style="shape=partialRectangle;html=1;whiteSpace=wrap;connectable=0;overflow=hidden;fillColor=none;top=0;left=0;bottom=0;right=0;pointerEvents=1;fontSize=18;" vertex="1" parent="hDO3oqwcBSIACxHkNT4T-323">
          <mxGeometry x="216" width="109" height="49" as="geometry">
            <mxRectangle width="109" height="49" as="alternateBounds" />
          </mxGeometry>
        </mxCell>
        <mxCell id="hDO3oqwcBSIACxHkNT4T-327" value="" style="shape=partialRectangle;html=1;whiteSpace=wrap;connectable=0;overflow=hidden;fillColor=none;top=0;left=0;bottom=0;right=0;pointerEvents=1;fontSize=18;" vertex="1" parent="hDO3oqwcBSIACxHkNT4T-323">
          <mxGeometry x="325" width="107" height="49" as="geometry">
            <mxRectangle width="107" height="49" as="alternateBounds" />
          </mxGeometry>
        </mxCell>
        <mxCell id="hDO3oqwcBSIACxHkNT4T-328" value="" style="shape=partialRectangle;html=1;whiteSpace=wrap;connectable=0;overflow=hidden;fillColor=none;top=0;left=0;bottom=0;right=0;pointerEvents=1;fontSize=18;" vertex="1" parent="hDO3oqwcBSIACxHkNT4T-323">
          <mxGeometry x="432" width="109" height="49" as="geometry">
            <mxRectangle width="109" height="49" as="alternateBounds" />
          </mxGeometry>
        </mxCell>
        <mxCell id="hDO3oqwcBSIACxHkNT4T-329" value="" style="shape=partialRectangle;html=1;whiteSpace=wrap;connectable=0;overflow=hidden;fillColor=none;top=0;left=0;bottom=0;right=0;pointerEvents=1;fontSize=18;" vertex="1" parent="hDO3oqwcBSIACxHkNT4T-323">
          <mxGeometry x="541" width="109" height="49" as="geometry">
            <mxRectangle width="109" height="49" as="alternateBounds" />
          </mxGeometry>
        </mxCell>
        <mxCell id="hDO3oqwcBSIACxHkNT4T-330" value="" style="shape=partialRectangle;html=1;whiteSpace=wrap;connectable=0;overflow=hidden;fillColor=none;top=0;left=0;bottom=0;right=0;pointerEvents=1;fontSize=18;" vertex="1" parent="hDO3oqwcBSIACxHkNT4T-323">
          <mxGeometry x="650" width="130" height="49" as="geometry">
            <mxRectangle width="130" height="49" as="alternateBounds" />
          </mxGeometry>
        </mxCell>
        <mxCell id="hDO3oqwcBSIACxHkNT4T-331" value="" style="shape=partialRectangle;html=1;whiteSpace=wrap;connectable=0;overflow=hidden;fillColor=none;top=0;left=0;bottom=0;right=0;pointerEvents=1;fontSize=18;" vertex="1" parent="hDO3oqwcBSIACxHkNT4T-323">
          <mxGeometry x="780" width="85" height="49" as="geometry">
            <mxRectangle width="85" height="49" as="alternateBounds" />
          </mxGeometry>
        </mxCell>
        <mxCell id="hDO3oqwcBSIACxHkNT4T-332" value="" style="shape=partialRectangle;html=1;whiteSpace=wrap;connectable=0;overflow=hidden;fillColor=none;top=0;left=0;bottom=0;right=0;pointerEvents=1;fontSize=18;" vertex="1" parent="hDO3oqwcBSIACxHkNT4T-323">
          <mxGeometry x="865" width="109" height="49" as="geometry">
            <mxRectangle width="109" height="49" as="alternateBounds" />
          </mxGeometry>
        </mxCell>
        <mxCell id="hDO3oqwcBSIACxHkNT4T-333" value="" style="shape=partialRectangle;html=1;whiteSpace=wrap;connectable=0;overflow=hidden;fillColor=none;top=0;left=0;bottom=0;right=0;pointerEvents=1;fontSize=18;" vertex="1" parent="hDO3oqwcBSIACxHkNT4T-323">
          <mxGeometry x="974" width="186" height="49" as="geometry">
            <mxRectangle width="186" height="49" as="alternateBounds" />
          </mxGeometry>
        </mxCell>
        <mxCell id="hDO3oqwcBSIACxHkNT4T-334" value="" style="shape=partialRectangle;html=1;whiteSpace=wrap;connectable=0;overflow=hidden;fillColor=none;top=0;left=0;bottom=0;right=0;pointerEvents=1;fontSize=18;" vertex="1" parent="hDO3oqwcBSIACxHkNT4T-323">
          <mxGeometry x="1160" width="120" height="49" as="geometry">
            <mxRectangle width="120" height="49" as="alternateBounds" />
          </mxGeometry>
        </mxCell>
        <mxCell id="hDO3oqwcBSIACxHkNT4T-335" value="" style="shape=tableRow;horizontal=0;startSize=0;swimlaneHead=0;swimlaneBody=0;top=0;left=0;bottom=0;right=0;collapsible=0;dropTarget=0;fillColor=none;points=[[0,0.5],[1,0.5]];portConstraint=eastwest;fontSize=18;" vertex="1" parent="hDO3oqwcBSIACxHkNT4T-130">
          <mxGeometry y="876" width="1280" height="48" as="geometry" />
        </mxCell>
        <mxCell id="hDO3oqwcBSIACxHkNT4T-336" value="" style="shape=partialRectangle;html=1;whiteSpace=wrap;connectable=0;overflow=hidden;fillColor=none;top=0;left=0;bottom=0;right=0;pointerEvents=1;fontSize=18;" vertex="1" parent="hDO3oqwcBSIACxHkNT4T-335">
          <mxGeometry width="109" height="48" as="geometry">
            <mxRectangle width="109" height="48" as="alternateBounds" />
          </mxGeometry>
        </mxCell>
        <mxCell id="hDO3oqwcBSIACxHkNT4T-337" value="" style="shape=partialRectangle;html=1;whiteSpace=wrap;connectable=0;overflow=hidden;fillColor=none;top=0;left=0;bottom=0;right=0;pointerEvents=1;fontSize=18;" vertex="1" parent="hDO3oqwcBSIACxHkNT4T-335">
          <mxGeometry x="109" width="107" height="48" as="geometry">
            <mxRectangle width="107" height="48" as="alternateBounds" />
          </mxGeometry>
        </mxCell>
        <mxCell id="hDO3oqwcBSIACxHkNT4T-338" value="" style="shape=partialRectangle;html=1;whiteSpace=wrap;connectable=0;overflow=hidden;fillColor=none;top=0;left=0;bottom=0;right=0;pointerEvents=1;fontSize=18;" vertex="1" parent="hDO3oqwcBSIACxHkNT4T-335">
          <mxGeometry x="216" width="109" height="48" as="geometry">
            <mxRectangle width="109" height="48" as="alternateBounds" />
          </mxGeometry>
        </mxCell>
        <mxCell id="hDO3oqwcBSIACxHkNT4T-339" value="" style="shape=partialRectangle;html=1;whiteSpace=wrap;connectable=0;overflow=hidden;fillColor=none;top=0;left=0;bottom=0;right=0;pointerEvents=1;fontSize=18;" vertex="1" parent="hDO3oqwcBSIACxHkNT4T-335">
          <mxGeometry x="325" width="107" height="48" as="geometry">
            <mxRectangle width="107" height="48" as="alternateBounds" />
          </mxGeometry>
        </mxCell>
        <mxCell id="hDO3oqwcBSIACxHkNT4T-340" value="" style="shape=partialRectangle;html=1;whiteSpace=wrap;connectable=0;overflow=hidden;fillColor=none;top=0;left=0;bottom=0;right=0;pointerEvents=1;fontSize=18;" vertex="1" parent="hDO3oqwcBSIACxHkNT4T-335">
          <mxGeometry x="432" width="109" height="48" as="geometry">
            <mxRectangle width="109" height="48" as="alternateBounds" />
          </mxGeometry>
        </mxCell>
        <mxCell id="hDO3oqwcBSIACxHkNT4T-341" value="" style="shape=partialRectangle;html=1;whiteSpace=wrap;connectable=0;overflow=hidden;fillColor=none;top=0;left=0;bottom=0;right=0;pointerEvents=1;fontSize=18;" vertex="1" parent="hDO3oqwcBSIACxHkNT4T-335">
          <mxGeometry x="541" width="109" height="48" as="geometry">
            <mxRectangle width="109" height="48" as="alternateBounds" />
          </mxGeometry>
        </mxCell>
        <mxCell id="hDO3oqwcBSIACxHkNT4T-342" value="" style="shape=partialRectangle;html=1;whiteSpace=wrap;connectable=0;overflow=hidden;fillColor=none;top=0;left=0;bottom=0;right=0;pointerEvents=1;fontSize=18;" vertex="1" parent="hDO3oqwcBSIACxHkNT4T-335">
          <mxGeometry x="650" width="130" height="48" as="geometry">
            <mxRectangle width="130" height="48" as="alternateBounds" />
          </mxGeometry>
        </mxCell>
        <mxCell id="hDO3oqwcBSIACxHkNT4T-343" value="" style="shape=partialRectangle;html=1;whiteSpace=wrap;connectable=0;overflow=hidden;fillColor=none;top=0;left=0;bottom=0;right=0;pointerEvents=1;fontSize=18;" vertex="1" parent="hDO3oqwcBSIACxHkNT4T-335">
          <mxGeometry x="780" width="85" height="48" as="geometry">
            <mxRectangle width="85" height="48" as="alternateBounds" />
          </mxGeometry>
        </mxCell>
        <mxCell id="hDO3oqwcBSIACxHkNT4T-344" value="" style="shape=partialRectangle;html=1;whiteSpace=wrap;connectable=0;overflow=hidden;fillColor=none;top=0;left=0;bottom=0;right=0;pointerEvents=1;fontSize=18;" vertex="1" parent="hDO3oqwcBSIACxHkNT4T-335">
          <mxGeometry x="865" width="109" height="48" as="geometry">
            <mxRectangle width="109" height="48" as="alternateBounds" />
          </mxGeometry>
        </mxCell>
        <mxCell id="hDO3oqwcBSIACxHkNT4T-345" value="" style="shape=partialRectangle;html=1;whiteSpace=wrap;connectable=0;overflow=hidden;fillColor=none;top=0;left=0;bottom=0;right=0;pointerEvents=1;fontSize=18;" vertex="1" parent="hDO3oqwcBSIACxHkNT4T-335">
          <mxGeometry x="974" width="186" height="48" as="geometry">
            <mxRectangle width="186" height="48" as="alternateBounds" />
          </mxGeometry>
        </mxCell>
        <mxCell id="hDO3oqwcBSIACxHkNT4T-346" value="" style="shape=partialRectangle;html=1;whiteSpace=wrap;connectable=0;overflow=hidden;fillColor=none;top=0;left=0;bottom=0;right=0;pointerEvents=1;fontSize=18;" vertex="1" parent="hDO3oqwcBSIACxHkNT4T-335">
          <mxGeometry x="1160" width="120" height="48" as="geometry">
            <mxRectangle width="120" height="48" as="alternateBounds" />
          </mxGeometry>
        </mxCell>
        <mxCell id="hDO3oqwcBSIACxHkNT4T-347" value="" style="shape=tableRow;horizontal=0;startSize=0;swimlaneHead=0;swimlaneBody=0;top=0;left=0;bottom=0;right=0;collapsible=0;dropTarget=0;fillColor=none;points=[[0,0.5],[1,0.5]];portConstraint=eastwest;fontSize=18;" vertex="1" parent="hDO3oqwcBSIACxHkNT4T-130">
          <mxGeometry y="924" width="1280" height="50" as="geometry" />
        </mxCell>
        <mxCell id="hDO3oqwcBSIACxHkNT4T-348" value="" style="shape=partialRectangle;html=1;whiteSpace=wrap;connectable=0;overflow=hidden;fillColor=none;top=0;left=0;bottom=0;right=0;pointerEvents=1;fontSize=18;" vertex="1" parent="hDO3oqwcBSIACxHkNT4T-347">
          <mxGeometry width="109" height="50" as="geometry">
            <mxRectangle width="109" height="50" as="alternateBounds" />
          </mxGeometry>
        </mxCell>
        <mxCell id="hDO3oqwcBSIACxHkNT4T-349" value="" style="shape=partialRectangle;html=1;whiteSpace=wrap;connectable=0;overflow=hidden;fillColor=none;top=0;left=0;bottom=0;right=0;pointerEvents=1;fontSize=18;" vertex="1" parent="hDO3oqwcBSIACxHkNT4T-347">
          <mxGeometry x="109" width="107" height="50" as="geometry">
            <mxRectangle width="107" height="50" as="alternateBounds" />
          </mxGeometry>
        </mxCell>
        <mxCell id="hDO3oqwcBSIACxHkNT4T-350" value="" style="shape=partialRectangle;html=1;whiteSpace=wrap;connectable=0;overflow=hidden;fillColor=none;top=0;left=0;bottom=0;right=0;pointerEvents=1;fontSize=18;" vertex="1" parent="hDO3oqwcBSIACxHkNT4T-347">
          <mxGeometry x="216" width="109" height="50" as="geometry">
            <mxRectangle width="109" height="50" as="alternateBounds" />
          </mxGeometry>
        </mxCell>
        <mxCell id="hDO3oqwcBSIACxHkNT4T-351" value="" style="shape=partialRectangle;html=1;whiteSpace=wrap;connectable=0;overflow=hidden;fillColor=none;top=0;left=0;bottom=0;right=0;pointerEvents=1;fontSize=18;" vertex="1" parent="hDO3oqwcBSIACxHkNT4T-347">
          <mxGeometry x="325" width="107" height="50" as="geometry">
            <mxRectangle width="107" height="50" as="alternateBounds" />
          </mxGeometry>
        </mxCell>
        <mxCell id="hDO3oqwcBSIACxHkNT4T-352" value="" style="shape=partialRectangle;html=1;whiteSpace=wrap;connectable=0;overflow=hidden;fillColor=none;top=0;left=0;bottom=0;right=0;pointerEvents=1;fontSize=18;" vertex="1" parent="hDO3oqwcBSIACxHkNT4T-347">
          <mxGeometry x="432" width="109" height="50" as="geometry">
            <mxRectangle width="109" height="50" as="alternateBounds" />
          </mxGeometry>
        </mxCell>
        <mxCell id="hDO3oqwcBSIACxHkNT4T-353" value="" style="shape=partialRectangle;html=1;whiteSpace=wrap;connectable=0;overflow=hidden;fillColor=none;top=0;left=0;bottom=0;right=0;pointerEvents=1;fontSize=18;" vertex="1" parent="hDO3oqwcBSIACxHkNT4T-347">
          <mxGeometry x="541" width="109" height="50" as="geometry">
            <mxRectangle width="109" height="50" as="alternateBounds" />
          </mxGeometry>
        </mxCell>
        <mxCell id="hDO3oqwcBSIACxHkNT4T-354" value="" style="shape=partialRectangle;html=1;whiteSpace=wrap;connectable=0;overflow=hidden;fillColor=none;top=0;left=0;bottom=0;right=0;pointerEvents=1;fontSize=18;" vertex="1" parent="hDO3oqwcBSIACxHkNT4T-347">
          <mxGeometry x="650" width="130" height="50" as="geometry">
            <mxRectangle width="130" height="50" as="alternateBounds" />
          </mxGeometry>
        </mxCell>
        <mxCell id="hDO3oqwcBSIACxHkNT4T-355" value="" style="shape=partialRectangle;html=1;whiteSpace=wrap;connectable=0;overflow=hidden;fillColor=none;top=0;left=0;bottom=0;right=0;pointerEvents=1;fontSize=18;" vertex="1" parent="hDO3oqwcBSIACxHkNT4T-347">
          <mxGeometry x="780" width="85" height="50" as="geometry">
            <mxRectangle width="85" height="50" as="alternateBounds" />
          </mxGeometry>
        </mxCell>
        <mxCell id="hDO3oqwcBSIACxHkNT4T-356" value="" style="shape=partialRectangle;html=1;whiteSpace=wrap;connectable=0;overflow=hidden;fillColor=none;top=0;left=0;bottom=0;right=0;pointerEvents=1;fontSize=18;" vertex="1" parent="hDO3oqwcBSIACxHkNT4T-347">
          <mxGeometry x="865" width="109" height="50" as="geometry">
            <mxRectangle width="109" height="50" as="alternateBounds" />
          </mxGeometry>
        </mxCell>
        <mxCell id="hDO3oqwcBSIACxHkNT4T-357" value="" style="shape=partialRectangle;html=1;whiteSpace=wrap;connectable=0;overflow=hidden;fillColor=none;top=0;left=0;bottom=0;right=0;pointerEvents=1;fontSize=18;" vertex="1" parent="hDO3oqwcBSIACxHkNT4T-347">
          <mxGeometry x="974" width="186" height="50" as="geometry">
            <mxRectangle width="186" height="50" as="alternateBounds" />
          </mxGeometry>
        </mxCell>
        <mxCell id="hDO3oqwcBSIACxHkNT4T-358" value="" style="shape=partialRectangle;html=1;whiteSpace=wrap;connectable=0;overflow=hidden;fillColor=none;top=0;left=0;bottom=0;right=0;pointerEvents=1;fontSize=18;" vertex="1" parent="hDO3oqwcBSIACxHkNT4T-347">
          <mxGeometry x="1160" width="120" height="50" as="geometry">
            <mxRectangle width="120" height="50" as="alternateBounds" />
          </mxGeometry>
        </mxCell>
        <mxCell id="hDO3oqwcBSIACxHkNT4T-359" value="" style="shape=tableRow;horizontal=0;startSize=0;swimlaneHead=0;swimlaneBody=0;top=0;left=0;bottom=0;right=0;collapsible=0;dropTarget=0;fillColor=none;points=[[0,0.5],[1,0.5]];portConstraint=eastwest;fontSize=18;" vertex="1" parent="hDO3oqwcBSIACxHkNT4T-130">
          <mxGeometry y="974" width="1280" height="48" as="geometry" />
        </mxCell>
        <mxCell id="hDO3oqwcBSIACxHkNT4T-360" value="" style="shape=partialRectangle;html=1;whiteSpace=wrap;connectable=0;overflow=hidden;fillColor=none;top=0;left=0;bottom=0;right=0;pointerEvents=1;fontSize=18;" vertex="1" parent="hDO3oqwcBSIACxHkNT4T-359">
          <mxGeometry width="109" height="48" as="geometry">
            <mxRectangle width="109" height="48" as="alternateBounds" />
          </mxGeometry>
        </mxCell>
        <mxCell id="hDO3oqwcBSIACxHkNT4T-361" value="" style="shape=partialRectangle;html=1;whiteSpace=wrap;connectable=0;overflow=hidden;fillColor=none;top=0;left=0;bottom=0;right=0;pointerEvents=1;fontSize=18;" vertex="1" parent="hDO3oqwcBSIACxHkNT4T-359">
          <mxGeometry x="109" width="107" height="48" as="geometry">
            <mxRectangle width="107" height="48" as="alternateBounds" />
          </mxGeometry>
        </mxCell>
        <mxCell id="hDO3oqwcBSIACxHkNT4T-362" value="" style="shape=partialRectangle;html=1;whiteSpace=wrap;connectable=0;overflow=hidden;fillColor=none;top=0;left=0;bottom=0;right=0;pointerEvents=1;fontSize=18;" vertex="1" parent="hDO3oqwcBSIACxHkNT4T-359">
          <mxGeometry x="216" width="109" height="48" as="geometry">
            <mxRectangle width="109" height="48" as="alternateBounds" />
          </mxGeometry>
        </mxCell>
        <mxCell id="hDO3oqwcBSIACxHkNT4T-363" value="" style="shape=partialRectangle;html=1;whiteSpace=wrap;connectable=0;overflow=hidden;fillColor=none;top=0;left=0;bottom=0;right=0;pointerEvents=1;fontSize=18;" vertex="1" parent="hDO3oqwcBSIACxHkNT4T-359">
          <mxGeometry x="325" width="107" height="48" as="geometry">
            <mxRectangle width="107" height="48" as="alternateBounds" />
          </mxGeometry>
        </mxCell>
        <mxCell id="hDO3oqwcBSIACxHkNT4T-364" value="" style="shape=partialRectangle;html=1;whiteSpace=wrap;connectable=0;overflow=hidden;fillColor=none;top=0;left=0;bottom=0;right=0;pointerEvents=1;fontSize=18;" vertex="1" parent="hDO3oqwcBSIACxHkNT4T-359">
          <mxGeometry x="432" width="109" height="48" as="geometry">
            <mxRectangle width="109" height="48" as="alternateBounds" />
          </mxGeometry>
        </mxCell>
        <mxCell id="hDO3oqwcBSIACxHkNT4T-365" value="" style="shape=partialRectangle;html=1;whiteSpace=wrap;connectable=0;overflow=hidden;fillColor=none;top=0;left=0;bottom=0;right=0;pointerEvents=1;fontSize=18;" vertex="1" parent="hDO3oqwcBSIACxHkNT4T-359">
          <mxGeometry x="541" width="109" height="48" as="geometry">
            <mxRectangle width="109" height="48" as="alternateBounds" />
          </mxGeometry>
        </mxCell>
        <mxCell id="hDO3oqwcBSIACxHkNT4T-366" value="" style="shape=partialRectangle;html=1;whiteSpace=wrap;connectable=0;overflow=hidden;fillColor=none;top=0;left=0;bottom=0;right=0;pointerEvents=1;fontSize=18;" vertex="1" parent="hDO3oqwcBSIACxHkNT4T-359">
          <mxGeometry x="650" width="130" height="48" as="geometry">
            <mxRectangle width="130" height="48" as="alternateBounds" />
          </mxGeometry>
        </mxCell>
        <mxCell id="hDO3oqwcBSIACxHkNT4T-367" value="" style="shape=partialRectangle;html=1;whiteSpace=wrap;connectable=0;overflow=hidden;fillColor=none;top=0;left=0;bottom=0;right=0;pointerEvents=1;fontSize=18;" vertex="1" parent="hDO3oqwcBSIACxHkNT4T-359">
          <mxGeometry x="780" width="85" height="48" as="geometry">
            <mxRectangle width="85" height="48" as="alternateBounds" />
          </mxGeometry>
        </mxCell>
        <mxCell id="hDO3oqwcBSIACxHkNT4T-368" value="" style="shape=partialRectangle;html=1;whiteSpace=wrap;connectable=0;overflow=hidden;fillColor=none;top=0;left=0;bottom=0;right=0;pointerEvents=1;fontSize=18;" vertex="1" parent="hDO3oqwcBSIACxHkNT4T-359">
          <mxGeometry x="865" width="109" height="48" as="geometry">
            <mxRectangle width="109" height="48" as="alternateBounds" />
          </mxGeometry>
        </mxCell>
        <mxCell id="hDO3oqwcBSIACxHkNT4T-369" value="" style="shape=partialRectangle;html=1;whiteSpace=wrap;connectable=0;overflow=hidden;fillColor=none;top=0;left=0;bottom=0;right=0;pointerEvents=1;fontSize=18;" vertex="1" parent="hDO3oqwcBSIACxHkNT4T-359">
          <mxGeometry x="974" width="186" height="48" as="geometry">
            <mxRectangle width="186" height="48" as="alternateBounds" />
          </mxGeometry>
        </mxCell>
        <mxCell id="hDO3oqwcBSIACxHkNT4T-370" value="" style="shape=partialRectangle;html=1;whiteSpace=wrap;connectable=0;overflow=hidden;fillColor=none;top=0;left=0;bottom=0;right=0;pointerEvents=1;fontSize=18;" vertex="1" parent="hDO3oqwcBSIACxHkNT4T-359">
          <mxGeometry x="1160" width="120" height="48" as="geometry">
            <mxRectangle width="120" height="48" as="alternateBounds" />
          </mxGeometry>
        </mxCell>
      </root>
    </mxGraphModel>
  </diagram>
</mxfile>
